<mxfile host="app.diagrams.net" modified="2023-07-07T17:57:34.331Z" agent="Mozilla/5.0 (Windows NT 10.0; Win64; x64; rv:109.0) Gecko/20100101 Firefox/114.0" etag="eNxaufEDiVbA3ouP3C7A" version="21.5.0" type="github">
  <diagram name="Page-1" id="8378b5f6-a2b2-b727-a746-972ab9d02e00">
    <mxGraphModel dx="1723" dy="1930.5" grid="1" gridSize="10" guides="1" tooltips="1" connect="0" arrows="1" fold="1" page="1" pageScale="1.5" pageWidth="1169" pageHeight="827" background="none" math="0" shadow="0">
      <root>
        <mxCell id="0" />
        <mxCell id="1" parent="0" />
        <mxCell id="63" value="1" style="strokeColor=#DEEDFF;fillColor=#ADC3D9" parent="1" vertex="1">
          <mxGeometry x="86.5" y="380" width="40" height="20" as="geometry" />
        </mxCell>
        <mxCell id="64" value="Meeting with Prospera Team" style="align=left;strokeColor=#DEEDFF;fillColor=#ADC3D9" parent="1" vertex="1">
          <mxGeometry x="126.5" y="380" width="320" height="20" as="geometry" />
        </mxCell>
        <mxCell id="65" value="1 day" style="strokeColor=#DEEDFF;fillColor=#ADC3D9" parent="1" vertex="1">
          <mxGeometry x="446.50000000000176" y="380" width="80.00000000000028" height="20" as="geometry" />
        </mxCell>
        <mxCell id="66" value="" style="strokeColor=#DEEDFF;fillColor=#ADC3D9" parent="1" vertex="1">
          <mxGeometry x="526.500000000002" y="380" width="80.00000000000028" height="20" as="geometry" />
        </mxCell>
        <mxCell id="67" value="" style="strokeColor=#DEEDFF;fillColor=#ADC3D9" parent="1" vertex="1">
          <mxGeometry x="606.5000000000016" y="380.0000000000002" width="80.00000000000028" height="20" as="geometry" />
        </mxCell>
        <mxCell id="69" value="2" style="strokeColor=#DEEDFF;fillColor=#FFFFFF;" parent="1" vertex="1">
          <mxGeometry x="86.50000000000026" y="399.9999999999999" width="40" height="20" as="geometry" />
        </mxCell>
        <mxCell id="70" value="Business Understanding (customer acquisition)" style="align=left;strokeColor=#DEEDFF;fillColor=#FFFFFF;" parent="1" vertex="1">
          <mxGeometry x="126.50000000000026" y="399.9999999999999" width="319.9999999999998" height="20" as="geometry" />
        </mxCell>
        <mxCell id="71" value="2 weeks" style="strokeColor=#DEEDFF;fillColor=#FFFFFF;" parent="1" vertex="1">
          <mxGeometry x="446.500000000002" y="399.99999999999983" width="80.00000000000028" height="20" as="geometry" />
        </mxCell>
        <mxCell id="72" value="17.07.2023" style="strokeColor=#DEEDFF;fillColor=#FFFFFF;" parent="1" vertex="1">
          <mxGeometry x="526.5000000000023" y="399.99999999999983" width="80.00000000000028" height="20" as="geometry" />
        </mxCell>
        <mxCell id="73" value="28.07.2023" style="strokeColor=#DEEDFF;fillColor=#FFFFFF;" parent="1" vertex="1">
          <mxGeometry x="606.5000000000018" y="400.0000000000001" width="80.00000000000028" height="20" as="geometry" />
        </mxCell>
        <mxCell id="74" value="3" style="strokeColor=#DEEDFF" parent="1" vertex="1">
          <mxGeometry x="86.5" y="420" width="40" height="30" as="geometry" />
        </mxCell>
        <mxCell id="75" value="Identification Data Source &amp; &#xa;Required Data (customer acquisition)" style="align=left;strokeColor=#DEEDFF" parent="1" vertex="1">
          <mxGeometry x="126.5" y="420" width="320" height="30" as="geometry" />
        </mxCell>
        <mxCell id="76" value="2 weeks" style="strokeColor=#DEEDFF" parent="1" vertex="1">
          <mxGeometry x="446.5" y="420" width="80" height="30" as="geometry" />
        </mxCell>
        <mxCell id="77" value="31.07.2023" style="strokeColor=#DEEDFF" parent="1" vertex="1">
          <mxGeometry x="526.5" y="420" width="80" height="30" as="geometry" />
        </mxCell>
        <mxCell id="78" value="11.08.2023" style="strokeColor=#DEEDFF" parent="1" vertex="1">
          <mxGeometry x="606.5" y="420" width="80" height="30" as="geometry" />
        </mxCell>
        <mxCell id="79" value="4" style="strokeColor=#DEEDFF" parent="1" vertex="1">
          <mxGeometry x="86.5" y="450.0000000000002" width="40" height="20" as="geometry" />
        </mxCell>
        <mxCell id="81" value="2 weeks" style="strokeColor=#DEEDFF" parent="1" vertex="1">
          <mxGeometry x="446.5000000000017" y="450.0000000000001" width="80.00000000000028" height="20" as="geometry" />
        </mxCell>
        <mxCell id="82" value="14.08.2023" style="strokeColor=#DEEDFF" parent="1" vertex="1">
          <mxGeometry x="526.500000000002" y="450.0000000000001" width="80.00000000000028" height="20" as="geometry" />
        </mxCell>
        <mxCell id="83" value="25.08.2023" style="strokeColor=#DEEDFF" parent="1" vertex="1">
          <mxGeometry x="606.5000000000015" y="450.00000000000045" width="80.00000000000028" height="20" as="geometry" />
        </mxCell>
        <mxCell id="85" value="Exploration &amp; Analysis Planning" style="align=left;strokeColor=#DEEDFF;fillColor=#FFFFFF;" parent="1" vertex="1">
          <mxGeometry x="126.49999999999991" y="450.0000000000002" width="320.0000000000001" height="20" as="geometry" />
        </mxCell>
        <mxCell id="89" value="5" style="strokeColor=#DEEDFF" parent="1" vertex="1">
          <mxGeometry x="86.4999999999999" y="470.00000000000045" width="40" height="20" as="geometry" />
        </mxCell>
        <mxCell id="90" value="Data Preprosesing / Cleansing" style="align=left;strokeColor=#DEEDFF" parent="1" vertex="1">
          <mxGeometry x="126.49999999999989" y="470.00000000000045" width="320.0000000000001" height="20" as="geometry" />
        </mxCell>
        <mxCell id="91" value="2 weeks" style="strokeColor=#DEEDFF" parent="1" vertex="1">
          <mxGeometry x="446.50000000000165" y="470.00000000000034" width="80.00000000000028" height="20" as="geometry" />
        </mxCell>
        <mxCell id="92" value="28.08.2023" style="strokeColor=#DEEDFF" parent="1" vertex="1">
          <mxGeometry x="526.5000000000019" y="470.00000000000034" width="80.00000000000028" height="20" as="geometry" />
        </mxCell>
        <mxCell id="93" value="08.09.2023" style="strokeColor=#DEEDFF" parent="1" vertex="1">
          <mxGeometry x="606.5000000000015" y="470.0000000000007" width="80.00000000000028" height="20" as="geometry" />
        </mxCell>
        <mxCell id="95" value="Data Collection" style="align=left;strokeColor=#DEEDFF" parent="1" vertex="1">
          <mxGeometry x="126.50000000000063" y="490.0000000000007" width="319.9999999999994" height="20" as="geometry" />
        </mxCell>
        <mxCell id="96" value="2 weeks" style="strokeColor=#DEEDFF" parent="1" vertex="1">
          <mxGeometry x="446.5000000000024" y="490.0000000000007" width="80.00000000000028" height="20" as="geometry" />
        </mxCell>
        <mxCell id="97" value="11.09.2023" style="strokeColor=#DEEDFF" parent="1" vertex="1">
          <mxGeometry x="526.5000000000027" y="490.0000000000007" width="80.00000000000028" height="20" as="geometry" />
        </mxCell>
        <mxCell id="98" value="22.09.2023" style="strokeColor=#DEEDFF" parent="1" vertex="1">
          <mxGeometry x="606.5000000000022" y="490.0000000000009" width="80.00000000000028" height="20" as="geometry" />
        </mxCell>
        <mxCell id="104" value="7" style="strokeColor=#DEEDFF;fillColor=#FFFFFF;" parent="1" vertex="1">
          <mxGeometry x="86.50000000000037" y="510.000000000001" width="40" height="20" as="geometry" />
        </mxCell>
        <mxCell id="105" value="Exploration &amp; Analysis" style="align=left;strokeColor=#DEEDFF;fillColor=#FFFFFF;" parent="1" vertex="1">
          <mxGeometry x="126.50000000000037" y="510.000000000001" width="319.99999999999966" height="20.00000000000003" as="geometry" />
        </mxCell>
        <mxCell id="106" value="2 weeks" style="strokeColor=#DEEDFF;fillColor=#FFFFFF;" parent="1" vertex="1">
          <mxGeometry x="446.5000000000021" y="510.0000000000009" width="80.00000000000028" height="20" as="geometry" />
        </mxCell>
        <mxCell id="107" value="25.09.2023" style="strokeColor=#DEEDFF;fillColor=#FFFFFF;" parent="1" vertex="1">
          <mxGeometry x="526.5000000000025" y="510.0000000000009" width="80.00000000000028" height="20" as="geometry" />
        </mxCell>
        <mxCell id="108" value="06.10.2023" style="strokeColor=#DEEDFF;fillColor=#FFFFFF;" parent="1" vertex="1">
          <mxGeometry x="606.5000000000018" y="510.00000000000125" width="80.00000000000028" height="20" as="geometry" />
        </mxCell>
        <mxCell id="109" value="8" style="strokeColor=#DEEDFF" parent="1" vertex="1">
          <mxGeometry x="86.50000000000028" y="530.000000000001" width="40" height="20" as="geometry" />
        </mxCell>
        <mxCell id="110" value="Build Visualisation" style="align=left;strokeColor=#DEEDFF" parent="1" vertex="1">
          <mxGeometry x="126.5" y="530" width="320" height="20" as="geometry" />
        </mxCell>
        <mxCell id="111" value="2 weeks" style="strokeColor=#DEEDFF" parent="1" vertex="1">
          <mxGeometry x="446.50000000000205" y="530.0000000000009" width="80.00000000000028" height="20" as="geometry" />
        </mxCell>
        <mxCell id="112" value="09.10.2023" style="strokeColor=#DEEDFF" parent="1" vertex="1">
          <mxGeometry x="526.5000000000023" y="530.0000000000009" width="80.00000000000028" height="20" as="geometry" />
        </mxCell>
        <mxCell id="113" value="20.10.2023" style="strokeColor=#DEEDFF" parent="1" vertex="1">
          <mxGeometry x="606.5000000000018" y="530.0000000000013" width="80.00000000000028" height="20" as="geometry" />
        </mxCell>
        <mxCell id="197" value="" style="strokeColor=#D4E1F5;" parent="1" vertex="1">
          <mxGeometry x="766.5" y="380" width="20" height="170" as="geometry" />
        </mxCell>
        <mxCell id="198" value="" style="strokeColor=#D4E1F5;" parent="1" vertex="1">
          <mxGeometry x="786.5" y="380" width="20" height="170" as="geometry" />
        </mxCell>
        <mxCell id="199" value="" style="strokeColor=#DEEDFF;fillColor=#FFFFFF;" parent="1" vertex="1">
          <mxGeometry x="806.5" y="380" width="20" height="170" as="geometry" />
        </mxCell>
        <mxCell id="200" value="" style="strokeColor=#DEEDFF;fillColor=#D4E1F5;" parent="1" vertex="1">
          <mxGeometry x="826.5" y="380" width="20" height="170" as="geometry" />
        </mxCell>
        <mxCell id="201" value="" style="strokeColor=#DEEDFF;fillColor=#D4E1F5;" parent="1" vertex="1">
          <mxGeometry x="846.5" y="380" width="20" height="170" as="geometry" />
        </mxCell>
        <mxCell id="202" value="" style="strokeColor=#DEEDFF" parent="1" vertex="1">
          <mxGeometry x="866.5" y="380" width="20" height="170" as="geometry" />
        </mxCell>
        <mxCell id="203" value="" style="strokeColor=#DEEDFF" parent="1" vertex="1">
          <mxGeometry x="886.5" y="380" width="20" height="170" as="geometry" />
        </mxCell>
        <mxCell id="204" value="" style="strokeColor=#DEEDFF" parent="1" vertex="1">
          <mxGeometry x="906.5" y="380" width="20" height="170" as="geometry" />
        </mxCell>
        <mxCell id="205" value="" style="strokeColor=#DEEDFF;fillColor=#FFFFFF;" parent="1" vertex="1">
          <mxGeometry x="926.5" y="380" width="20" height="170" as="geometry" />
        </mxCell>
        <mxCell id="206" value="" style="strokeColor=#DEEDFF;fillColor=#FFFFFF;" parent="1" vertex="1">
          <mxGeometry x="946.5" y="380" width="20" height="170" as="geometry" />
        </mxCell>
        <mxCell id="207" value="" style="strokeColor=#DEEDFF;fillColor=#D4E1F5;" parent="1" vertex="1">
          <mxGeometry x="966.5" y="380" width="20" height="170" as="geometry" />
        </mxCell>
        <mxCell id="208" value="" style="strokeColor=#DEEDFF;fillColor=#D4E1F5;" parent="1" vertex="1">
          <mxGeometry x="986.5" y="380" width="20" height="170" as="geometry" />
        </mxCell>
        <mxCell id="209" value="" style="strokeColor=#DEEDFF" parent="1" vertex="1">
          <mxGeometry x="1006.5" y="380" width="20" height="170" as="geometry" />
        </mxCell>
        <mxCell id="210" value="" style="strokeColor=#DEEDFF" parent="1" vertex="1">
          <mxGeometry x="1026.5" y="380" width="20" height="170" as="geometry" />
        </mxCell>
        <mxCell id="211" value="" style="strokeColor=#DEEDFF" parent="1" vertex="1">
          <mxGeometry x="1046.5" y="380" width="20" height="170" as="geometry" />
        </mxCell>
        <mxCell id="212" value="" style="strokeColor=#DEEDFF;fillColor=#FFFFFF;" parent="1" vertex="1">
          <mxGeometry x="1066.5" y="380" width="20" height="170" as="geometry" />
        </mxCell>
        <mxCell id="213" value="" style="strokeColor=#D4E1F5;" parent="1" vertex="1">
          <mxGeometry x="1086.5" y="380" width="20" height="170" as="geometry" />
        </mxCell>
        <mxCell id="214" value="" style="strokeColor=#DEEDFF;fillColor=#D4E1F5;" parent="1" vertex="1">
          <mxGeometry x="1106.5" y="380" width="20" height="170" as="geometry" />
        </mxCell>
        <mxCell id="215" value="" style="strokeColor=#DEEDFF;fillColor=#D4E1F5;" parent="1" vertex="1">
          <mxGeometry x="1126.5" y="380" width="20" height="170" as="geometry" />
        </mxCell>
        <mxCell id="216" value="" style="strokeColor=#DEEDFF" parent="1" vertex="1">
          <mxGeometry x="1146.5" y="380" width="20" height="170" as="geometry" />
        </mxCell>
        <mxCell id="217" value="" style="strokeColor=#DEEDFF" parent="1" vertex="1">
          <mxGeometry x="1166.5" y="380" width="20" height="170" as="geometry" />
        </mxCell>
        <mxCell id="218" value="" style="strokeColor=#DEEDFF" parent="1" vertex="1">
          <mxGeometry x="1186.5" y="380" width="20" height="170" as="geometry" />
        </mxCell>
        <mxCell id="219" value="" style="strokeColor=#DEEDFF;fillColor=#FFFFFF;" parent="1" vertex="1">
          <mxGeometry x="1206.5" y="380" width="20" height="170" as="geometry" />
        </mxCell>
        <mxCell id="220" value="" style="strokeColor=#DEEDFF;fillColor=#FFFFFF;" parent="1" vertex="1">
          <mxGeometry x="1226.5" y="380" width="20" height="170" as="geometry" />
        </mxCell>
        <mxCell id="221" value="" style="strokeColor=#DEEDFF;fillColor=#D4E1F5;" parent="1" vertex="1">
          <mxGeometry x="1246.5" y="380" width="20" height="170" as="geometry" />
        </mxCell>
        <mxCell id="222" value="" style="strokeColor=#DEEDFF;fillColor=#D4E1F5;" parent="1" vertex="1">
          <mxGeometry x="1266.5" y="380" width="20" height="170" as="geometry" />
        </mxCell>
        <mxCell id="223" value="" style="strokeColor=#DEEDFF" parent="1" vertex="1">
          <mxGeometry x="1286.5" y="380" width="23.5" height="170" as="geometry" />
        </mxCell>
        <mxCell id="226" value="" style="strokeColor=#DEEDFF;fillColor=#FFFFFF;" parent="1" vertex="1">
          <mxGeometry x="1330" y="380" width="20" height="170" as="geometry" />
        </mxCell>
        <mxCell id="227" value="" style="strokeColor=#DEEDFF;fillColor=#FFFFFF;" parent="1" vertex="1">
          <mxGeometry x="1350" y="380" width="20" height="170" as="geometry" />
        </mxCell>
        <mxCell id="228" value="" style="strokeColor=#DEEDFF" parent="1" vertex="1">
          <mxGeometry x="1370" y="380" width="20" height="170" as="geometry" />
        </mxCell>
        <mxCell id="229" value="" style="strokeColor=#DEEDFF;fillColor=#D4E1F5;" parent="1" vertex="1">
          <mxGeometry x="1390" y="380" width="20" height="170" as="geometry" />
        </mxCell>
        <mxCell id="230" value="" style="strokeColor=#DEEDFF;fillColor=#D4E1F5;" parent="1" vertex="1">
          <mxGeometry x="1410" y="380" width="20" height="170" as="geometry" />
        </mxCell>
        <mxCell id="231" value="" style="strokeColor=#DEEDFF" parent="1" vertex="1">
          <mxGeometry x="1430" y="380" width="20" height="170" as="geometry" />
        </mxCell>
        <mxCell id="232" value="" style="strokeColor=#DEEDFF" parent="1" vertex="1">
          <mxGeometry x="1450" y="380" width="20" height="170" as="geometry" />
        </mxCell>
        <mxCell id="233" value="" style="strokeColor=#DEEDFF;fillColor=#FFFFFF;" parent="1" vertex="1">
          <mxGeometry x="1470" y="380" width="20" height="170" as="geometry" />
        </mxCell>
        <mxCell id="234" value="" style="strokeColor=#DEEDFF;fillColor=#FFFFFF;" parent="1" vertex="1">
          <mxGeometry x="1490" y="380" width="20" height="170" as="geometry" />
        </mxCell>
        <mxCell id="2" value="Task Name" style="fillColor=#23445D;strokeColor=#FFFFFF;strokeWidth=2;fontColor=#FFFFFF;fontStyle=1" parent="1" vertex="1">
          <mxGeometry x="126.5" y="340" width="320" height="40" as="geometry" />
        </mxCell>
        <mxCell id="3" value="" style="fillColor=#23445D;strokeColor=#FFFFFF;strokeWidth=2;fontColor=#FFFFFF;fontStyle=1" parent="1" vertex="1">
          <mxGeometry x="86.5" y="340" width="40" height="40" as="geometry" />
        </mxCell>
        <mxCell id="4" value="July 23" style="fillColor=#23445D;strokeColor=#FFFFFF;strokeWidth=2;fontColor=#FFFFFF;fontStyle=1" parent="1" vertex="1">
          <mxGeometry x="686.5" y="340" width="623.5" height="20" as="geometry" />
        </mxCell>
        <mxCell id="5" value="1" style="fillColor=#23445D;strokeColor=#FFFFFF;strokeWidth=2;fontColor=#FFFFFF;fontStyle=1" parent="1" vertex="1">
          <mxGeometry x="686.5000000000018" y="360.0000000000001" width="20" height="20" as="geometry" />
        </mxCell>
        <mxCell id="6" value="2" style="fillColor=#23445D;strokeColor=#FFFFFF;strokeWidth=2;fontColor=#FFFFFF;fontStyle=1" parent="1" vertex="1">
          <mxGeometry x="706.5000000000018" y="360.0000000000001" width="20" height="20" as="geometry" />
        </mxCell>
        <mxCell id="7" value="3" style="fillColor=#23445D;strokeColor=#FFFFFF;strokeWidth=2;fontColor=#FFFFFF;fontStyle=1" parent="1" vertex="1">
          <mxGeometry x="726.5000000000018" y="360.0000000000001" width="20" height="20" as="geometry" />
        </mxCell>
        <mxCell id="8" value="4" style="fillColor=#23445D;strokeColor=#FFFFFF;strokeWidth=2;fontColor=#FFFFFF;fontStyle=1" parent="1" vertex="1">
          <mxGeometry x="746.5000000000018" y="360.0000000000001" width="20" height="20" as="geometry" />
        </mxCell>
        <mxCell id="9" value="5" style="fillColor=#23445D;strokeColor=#FFFFFF;strokeWidth=2;fontColor=#FFFFFF;fontStyle=1" parent="1" vertex="1">
          <mxGeometry x="766.5000000000016" y="360.0000000000001" width="20" height="20" as="geometry" />
        </mxCell>
        <mxCell id="10" value="6" style="fillColor=#23445D;strokeColor=#FFFFFF;strokeWidth=2;fontColor=#FFFFFF;fontStyle=1" parent="1" vertex="1">
          <mxGeometry x="786.5000000000016" y="360.0000000000001" width="20" height="20" as="geometry" />
        </mxCell>
        <mxCell id="11" value="7" style="fillColor=#23445D;strokeColor=#FFFFFF;strokeWidth=2;fontColor=#FFFFFF;fontStyle=1" parent="1" vertex="1">
          <mxGeometry x="806.5000000000016" y="360.0000000000001" width="20" height="20" as="geometry" />
        </mxCell>
        <mxCell id="12" value="Duration" style="fillColor=#23445D;strokeColor=#FFFFFF;strokeWidth=2;fontColor=#FFFFFF;fontStyle=1" parent="1" vertex="1">
          <mxGeometry x="446.50000000000176" y="340.00000000000006" width="80.00000000000006" height="40.00000000000001" as="geometry" />
        </mxCell>
        <mxCell id="13" value="Start" style="fillColor=#23445D;strokeColor=#FFFFFF;strokeWidth=2;fontColor=#FFFFFF;fontStyle=1" parent="1" vertex="1">
          <mxGeometry x="526.5000000000018" y="340.00000000000006" width="80.00000000000006" height="40.00000000000001" as="geometry" />
        </mxCell>
        <mxCell id="14" value="ETA" style="fillColor=#23445D;strokeColor=#FFFFFF;strokeWidth=2;fontColor=#FFFFFF;fontStyle=1" parent="1" vertex="1">
          <mxGeometry x="606.5000000000019" y="340.0000000000001" width="80.00000000000006" height="40.00000000000001" as="geometry" />
        </mxCell>
        <mxCell id="15" value="Aug 23" style="fillColor=#23445D;strokeColor=#FFFFFF;strokeWidth=2;fontColor=#FFFFFF;fontStyle=1" parent="1" vertex="1">
          <mxGeometry x="1310" y="340" width="620" height="20" as="geometry" />
        </mxCell>
        <mxCell id="16" value="8" style="fillColor=#23445D;strokeColor=#FFFFFF;strokeWidth=2;fontColor=#FFFFFF;fontStyle=1" parent="1" vertex="1">
          <mxGeometry x="826.5000000000018" y="360.0000000000001" width="20" height="20" as="geometry" />
        </mxCell>
        <mxCell id="17" value="9" style="fillColor=#23445D;strokeColor=#FFFFFF;strokeWidth=2;fontColor=#FFFFFF;fontStyle=1" parent="1" vertex="1">
          <mxGeometry x="846.5000000000018" y="360.0000000000001" width="20" height="20" as="geometry" />
        </mxCell>
        <mxCell id="18" value="10" style="fillColor=#23445D;strokeColor=#FFFFFF;strokeWidth=2;fontColor=#FFFFFF;fontStyle=1" parent="1" vertex="1">
          <mxGeometry x="866.5000000000018" y="360.0000000000001" width="20" height="20" as="geometry" />
        </mxCell>
        <mxCell id="19" value="11" style="fillColor=#23445D;strokeColor=#FFFFFF;strokeWidth=2;fontColor=#FFFFFF;fontStyle=1" parent="1" vertex="1">
          <mxGeometry x="886.5000000000018" y="360.0000000000001" width="20" height="20" as="geometry" />
        </mxCell>
        <mxCell id="20" value="12" style="fillColor=#23445D;strokeColor=#FFFFFF;strokeWidth=2;fontColor=#FFFFFF;fontStyle=1" parent="1" vertex="1">
          <mxGeometry x="906.5000000000016" y="360.0000000000001" width="20" height="20" as="geometry" />
        </mxCell>
        <mxCell id="21" value="13" style="fillColor=#23445D;strokeColor=#FFFFFF;strokeWidth=2;fontColor=#FFFFFF;fontStyle=1" parent="1" vertex="1">
          <mxGeometry x="926.5000000000016" y="360.0000000000001" width="20" height="20" as="geometry" />
        </mxCell>
        <mxCell id="22" value="14" style="fillColor=#23445D;strokeColor=#FFFFFF;strokeWidth=2;fontColor=#FFFFFF;fontStyle=1" parent="1" vertex="1">
          <mxGeometry x="946.5000000000016" y="360.0000000000001" width="20" height="20" as="geometry" />
        </mxCell>
        <mxCell id="24" value="15" style="fillColor=#23445D;strokeColor=#FFFFFF;strokeWidth=2;fontColor=#FFFFFF;fontStyle=1" parent="1" vertex="1">
          <mxGeometry x="966.5000000000018" y="360.00000000000006" width="20" height="20" as="geometry" />
        </mxCell>
        <mxCell id="25" value="16" style="fillColor=#23445D;strokeColor=#FFFFFF;strokeWidth=2;fontColor=#FFFFFF;fontStyle=1" parent="1" vertex="1">
          <mxGeometry x="986.5000000000018" y="360.00000000000006" width="20" height="20" as="geometry" />
        </mxCell>
        <mxCell id="26" value="17" style="fillColor=#23445D;strokeColor=#FFFFFF;strokeWidth=2;fontColor=#FFFFFF;fontStyle=1" parent="1" vertex="1">
          <mxGeometry x="1006.5000000000018" y="360.00000000000006" width="20" height="20" as="geometry" />
        </mxCell>
        <mxCell id="27" value="18" style="fillColor=#23445D;strokeColor=#FFFFFF;strokeWidth=2;fontColor=#FFFFFF;fontStyle=1" parent="1" vertex="1">
          <mxGeometry x="1026.5000000000018" y="360.00000000000006" width="20" height="20" as="geometry" />
        </mxCell>
        <mxCell id="28" value="19" style="fillColor=#23445D;strokeColor=#FFFFFF;strokeWidth=2;fontColor=#FFFFFF;fontStyle=1" parent="1" vertex="1">
          <mxGeometry x="1046.5000000000016" y="360.00000000000006" width="20" height="20" as="geometry" />
        </mxCell>
        <mxCell id="29" value="20" style="fillColor=#23445D;strokeColor=#FFFFFF;strokeWidth=2;fontColor=#FFFFFF;fontStyle=1" parent="1" vertex="1">
          <mxGeometry x="1066.5000000000016" y="360.00000000000006" width="20" height="20" as="geometry" />
        </mxCell>
        <mxCell id="30" value="21" style="fillColor=#23445D;strokeColor=#FFFFFF;strokeWidth=2;fontColor=#FFFFFF;fontStyle=1" parent="1" vertex="1">
          <mxGeometry x="1086.5000000000016" y="360.00000000000006" width="20" height="20" as="geometry" />
        </mxCell>
        <mxCell id="32" value="22" style="fillColor=#23445D;strokeColor=#FFFFFF;strokeWidth=2;fontColor=#FFFFFF;fontStyle=1" parent="1" vertex="1">
          <mxGeometry x="1106.5000000000018" y="360.00000000000006" width="20" height="20" as="geometry" />
        </mxCell>
        <mxCell id="33" value="23" style="fillColor=#23445D;strokeColor=#FFFFFF;strokeWidth=2;fontColor=#FFFFFF;fontStyle=1" parent="1" vertex="1">
          <mxGeometry x="1126.5000000000018" y="360.00000000000006" width="20" height="20" as="geometry" />
        </mxCell>
        <mxCell id="34" value="24" style="fillColor=#23445D;strokeColor=#FFFFFF;strokeWidth=2;fontColor=#FFFFFF;fontStyle=1" parent="1" vertex="1">
          <mxGeometry x="1146.5000000000018" y="360.00000000000006" width="20" height="20" as="geometry" />
        </mxCell>
        <mxCell id="35" value="25" style="fillColor=#23445D;strokeColor=#FFFFFF;strokeWidth=2;fontColor=#FFFFFF;fontStyle=1" parent="1" vertex="1">
          <mxGeometry x="1166.5000000000018" y="360.00000000000006" width="20" height="20" as="geometry" />
        </mxCell>
        <mxCell id="36" value="26" style="fillColor=#23445D;strokeColor=#FFFFFF;strokeWidth=2;fontColor=#FFFFFF;fontStyle=1" parent="1" vertex="1">
          <mxGeometry x="1186.5000000000016" y="360" width="20" height="20" as="geometry" />
        </mxCell>
        <mxCell id="37" value="27" style="fillColor=#23445D;strokeColor=#FFFFFF;strokeWidth=2;fontColor=#FFFFFF;fontStyle=1" parent="1" vertex="1">
          <mxGeometry x="1206.5000000000016" y="360" width="20" height="20" as="geometry" />
        </mxCell>
        <mxCell id="38" value="28" style="fillColor=#23445D;strokeColor=#FFFFFF;strokeWidth=2;fontColor=#FFFFFF;fontStyle=1" parent="1" vertex="1">
          <mxGeometry x="1226.5000000000016" y="360" width="20" height="20" as="geometry" />
        </mxCell>
        <mxCell id="40" value="29" style="fillColor=#23445D;strokeColor=#FFFFFF;strokeWidth=2;fontColor=#FFFFFF;fontStyle=1" parent="1" vertex="1">
          <mxGeometry x="1246.5000000000018" y="360.00000000000006" width="20" height="20" as="geometry" />
        </mxCell>
        <mxCell id="41" value="30" style="fillColor=#23445D;strokeColor=#FFFFFF;strokeWidth=2;fontColor=#FFFFFF;fontStyle=1" parent="1" vertex="1">
          <mxGeometry x="1266.5000000000018" y="360.00000000000006" width="20" height="20" as="geometry" />
        </mxCell>
        <mxCell id="42" value="31" style="fillColor=#23445D;strokeColor=#FFFFFF;strokeWidth=2;fontColor=#FFFFFF;fontStyle=1" parent="1" vertex="1">
          <mxGeometry x="1286.5" y="360" width="23.5" height="20" as="geometry" />
        </mxCell>
        <mxCell id="46" value="2" style="fillColor=#23445D;strokeColor=#FFFFFF;strokeWidth=2;fontColor=#FFFFFF;fontStyle=1" parent="1" vertex="1">
          <mxGeometry x="1330.0000000000016" y="360" width="20" height="20" as="geometry" />
        </mxCell>
        <mxCell id="48" value="3" style="fillColor=#23445D;strokeColor=#FFFFFF;strokeWidth=2;fontColor=#FFFFFF;fontStyle=1" parent="1" vertex="1">
          <mxGeometry x="1350.0000000000018" y="360" width="20" height="20" as="geometry" />
        </mxCell>
        <mxCell id="49" value="4" style="fillColor=#23445D;strokeColor=#FFFFFF;strokeWidth=2;fontColor=#FFFFFF;fontStyle=1" parent="1" vertex="1">
          <mxGeometry x="1370.0000000000018" y="360" width="20" height="20" as="geometry" />
        </mxCell>
        <mxCell id="50" value="5" style="fillColor=#23445D;strokeColor=#FFFFFF;strokeWidth=2;fontColor=#FFFFFF;fontStyle=1" parent="1" vertex="1">
          <mxGeometry x="1390.0000000000018" y="360" width="20" height="20" as="geometry" />
        </mxCell>
        <mxCell id="51" value="6" style="fillColor=#23445D;strokeColor=#FFFFFF;strokeWidth=2;fontColor=#FFFFFF;fontStyle=1" parent="1" vertex="1">
          <mxGeometry x="1410.0000000000018" y="360" width="20" height="20" as="geometry" />
        </mxCell>
        <mxCell id="52" value="7" style="fillColor=#23445D;strokeColor=#FFFFFF;strokeWidth=2;fontColor=#FFFFFF;fontStyle=1" parent="1" vertex="1">
          <mxGeometry x="1430.0000000000016" y="360" width="20" height="20" as="geometry" />
        </mxCell>
        <mxCell id="53" value="8" style="fillColor=#23445D;strokeColor=#FFFFFF;strokeWidth=2;fontColor=#FFFFFF;fontStyle=1" parent="1" vertex="1">
          <mxGeometry x="1450.0000000000016" y="360" width="20" height="20" as="geometry" />
        </mxCell>
        <mxCell id="54" value="9" style="fillColor=#23445D;strokeColor=#FFFFFF;strokeWidth=2;fontColor=#FFFFFF;fontStyle=1" parent="1" vertex="1">
          <mxGeometry x="1470.0000000000016" y="360" width="20" height="20" as="geometry" />
        </mxCell>
        <mxCell id="JGmyNRBN7DjQSGYgZuc0-280" value="1" style="fillColor=#23445D;strokeColor=#FFFFFF;strokeWidth=2;fontColor=#FFFFFF;fontStyle=1" vertex="1" parent="1">
          <mxGeometry x="1310.0000000000018" y="360.00000000000006" width="20" height="20" as="geometry" />
        </mxCell>
        <mxCell id="JGmyNRBN7DjQSGYgZuc0-282" value="" style="strokeColor=#DEEDFF" vertex="1" parent="1">
          <mxGeometry x="1310" y="380" width="20" height="170" as="geometry" />
        </mxCell>
        <mxCell id="JGmyNRBN7DjQSGYgZuc0-284" value="10" style="fillColor=#23445D;strokeColor=#FFFFFF;strokeWidth=2;fontColor=#FFFFFF;fontStyle=1" vertex="1" parent="1">
          <mxGeometry x="1490.0000000000016" y="360" width="20" height="20" as="geometry" />
        </mxCell>
        <mxCell id="JGmyNRBN7DjQSGYgZuc0-285" value="11" style="fillColor=#23445D;strokeColor=#FFFFFF;strokeWidth=2;fontColor=#FFFFFF;fontStyle=1" vertex="1" parent="1">
          <mxGeometry x="1510.0000000000016" y="360" width="20" height="20" as="geometry" />
        </mxCell>
        <mxCell id="JGmyNRBN7DjQSGYgZuc0-286" value="" style="strokeColor=#DEEDFF;fillColor=#FFFFFF;" vertex="1" parent="1">
          <mxGeometry x="1510" y="380" width="20" height="170" as="geometry" />
        </mxCell>
        <mxCell id="JGmyNRBN7DjQSGYgZuc0-287" value="12" style="fillColor=#23445D;strokeColor=#FFFFFF;strokeWidth=2;fontColor=#FFFFFF;fontStyle=1" vertex="1" parent="1">
          <mxGeometry x="1530.0000000000016" y="360" width="20" height="20" as="geometry" />
        </mxCell>
        <mxCell id="JGmyNRBN7DjQSGYgZuc0-288" value="" style="strokeColor=#DEEDFF;fillColor=#D4E1F5;" vertex="1" parent="1">
          <mxGeometry x="1530" y="380" width="20" height="170" as="geometry" />
        </mxCell>
        <mxCell id="JGmyNRBN7DjQSGYgZuc0-289" value="13" style="fillColor=#23445D;strokeColor=#FFFFFF;strokeWidth=2;fontColor=#FFFFFF;fontStyle=1" vertex="1" parent="1">
          <mxGeometry x="1550.0000000000016" y="360" width="20" height="20" as="geometry" />
        </mxCell>
        <mxCell id="JGmyNRBN7DjQSGYgZuc0-290" value="" style="strokeColor=#DEEDFF;fillColor=#D4E1F5;" vertex="1" parent="1">
          <mxGeometry x="1550" y="380" width="20" height="170" as="geometry" />
        </mxCell>
        <mxCell id="JGmyNRBN7DjQSGYgZuc0-291" value="14" style="fillColor=#23445D;strokeColor=#FFFFFF;strokeWidth=2;fontColor=#FFFFFF;fontStyle=1" vertex="1" parent="1">
          <mxGeometry x="1570.0000000000016" y="360" width="20" height="20" as="geometry" />
        </mxCell>
        <mxCell id="JGmyNRBN7DjQSGYgZuc0-292" value="" style="strokeColor=#DEEDFF;fillColor=#FFFFFF;" vertex="1" parent="1">
          <mxGeometry x="1570" y="380" width="20" height="170" as="geometry" />
        </mxCell>
        <mxCell id="JGmyNRBN7DjQSGYgZuc0-293" value="15" style="fillColor=#23445D;strokeColor=#FFFFFF;strokeWidth=2;fontColor=#FFFFFF;fontStyle=1" vertex="1" parent="1">
          <mxGeometry x="1590.0000000000016" y="360" width="20" height="20" as="geometry" />
        </mxCell>
        <mxCell id="JGmyNRBN7DjQSGYgZuc0-294" value="" style="strokeColor=#DEEDFF;fillColor=#FFFFFF;" vertex="1" parent="1">
          <mxGeometry x="1590" y="380" width="20" height="170" as="geometry" />
        </mxCell>
        <mxCell id="JGmyNRBN7DjQSGYgZuc0-295" value="16" style="fillColor=#23445D;strokeColor=#FFFFFF;strokeWidth=2;fontColor=#FFFFFF;fontStyle=1" vertex="1" parent="1">
          <mxGeometry x="1610.0000000000016" y="360" width="20" height="20" as="geometry" />
        </mxCell>
        <mxCell id="JGmyNRBN7DjQSGYgZuc0-296" value="" style="strokeColor=#DEEDFF;fillColor=#FFFFFF;" vertex="1" parent="1">
          <mxGeometry x="1610" y="380" width="20" height="170" as="geometry" />
        </mxCell>
        <mxCell id="JGmyNRBN7DjQSGYgZuc0-297" value="17" style="fillColor=#23445D;strokeColor=#FFFFFF;strokeWidth=2;fontColor=#FFFFFF;fontStyle=1" vertex="1" parent="1">
          <mxGeometry x="1630.0000000000016" y="360" width="20" height="20" as="geometry" />
        </mxCell>
        <mxCell id="JGmyNRBN7DjQSGYgZuc0-298" value="" style="strokeColor=#DEEDFF;fillColor=#FFFFFF;" vertex="1" parent="1">
          <mxGeometry x="1630" y="380" width="20" height="170" as="geometry" />
        </mxCell>
        <mxCell id="JGmyNRBN7DjQSGYgZuc0-299" value="18" style="fillColor=#23445D;strokeColor=#FFFFFF;strokeWidth=2;fontColor=#FFFFFF;fontStyle=1" vertex="1" parent="1">
          <mxGeometry x="1650.0000000000016" y="360" width="20" height="20" as="geometry" />
        </mxCell>
        <mxCell id="JGmyNRBN7DjQSGYgZuc0-300" value="" style="strokeColor=#DEEDFF;fillColor=#FFFFFF;" vertex="1" parent="1">
          <mxGeometry x="1650" y="380" width="20" height="170" as="geometry" />
        </mxCell>
        <mxCell id="JGmyNRBN7DjQSGYgZuc0-301" value="19" style="fillColor=#23445D;strokeColor=#FFFFFF;strokeWidth=2;fontColor=#FFFFFF;fontStyle=1" vertex="1" parent="1">
          <mxGeometry x="1670.0000000000016" y="360" width="20" height="20" as="geometry" />
        </mxCell>
        <mxCell id="JGmyNRBN7DjQSGYgZuc0-303" value="" style="strokeColor=#DEEDFF;fillColor=#D4E1F5;" vertex="1" parent="1">
          <mxGeometry x="1670" y="380" width="20" height="170" as="geometry" />
        </mxCell>
        <mxCell id="JGmyNRBN7DjQSGYgZuc0-304" value="20" style="fillColor=#23445D;strokeColor=#FFFFFF;strokeWidth=2;fontColor=#FFFFFF;fontStyle=1" vertex="1" parent="1">
          <mxGeometry x="1690.0000000000016" y="360" width="20" height="20" as="geometry" />
        </mxCell>
        <mxCell id="JGmyNRBN7DjQSGYgZuc0-305" value="21" style="fillColor=#23445D;strokeColor=#FFFFFF;strokeWidth=2;fontColor=#FFFFFF;fontStyle=1" vertex="1" parent="1">
          <mxGeometry x="1710.0000000000016" y="360" width="20" height="20" as="geometry" />
        </mxCell>
        <mxCell id="JGmyNRBN7DjQSGYgZuc0-306" value="23" style="fillColor=#23445D;strokeColor=#FFFFFF;strokeWidth=2;fontColor=#FFFFFF;fontStyle=1" vertex="1" parent="1">
          <mxGeometry x="1750.0000000000016" y="360" width="20" height="20" as="geometry" />
        </mxCell>
        <mxCell id="JGmyNRBN7DjQSGYgZuc0-307" value="24" style="fillColor=#23445D;strokeColor=#FFFFFF;strokeWidth=2;fontColor=#FFFFFF;fontStyle=1" vertex="1" parent="1">
          <mxGeometry x="1770.0000000000016" y="360" width="20" height="20" as="geometry" />
        </mxCell>
        <mxCell id="JGmyNRBN7DjQSGYgZuc0-308" value="26" style="fillColor=#23445D;strokeColor=#FFFFFF;strokeWidth=2;fontColor=#FFFFFF;fontStyle=1" vertex="1" parent="1">
          <mxGeometry x="1810.0000000000016" y="360" width="20" height="20" as="geometry" />
        </mxCell>
        <mxCell id="JGmyNRBN7DjQSGYgZuc0-309" value="25" style="fillColor=#23445D;strokeColor=#FFFFFF;strokeWidth=2;fontColor=#FFFFFF;fontStyle=1" vertex="1" parent="1">
          <mxGeometry x="1790.0000000000016" y="360" width="20" height="20" as="geometry" />
        </mxCell>
        <mxCell id="JGmyNRBN7DjQSGYgZuc0-310" value="27" style="fillColor=#23445D;strokeColor=#FFFFFF;strokeWidth=2;fontColor=#FFFFFF;fontStyle=1" vertex="1" parent="1">
          <mxGeometry x="1830.0000000000016" y="360" width="20" height="20" as="geometry" />
        </mxCell>
        <mxCell id="JGmyNRBN7DjQSGYgZuc0-311" value="22" style="fillColor=#23445D;strokeColor=#FFFFFF;strokeWidth=2;fontColor=#FFFFFF;fontStyle=1" vertex="1" parent="1">
          <mxGeometry x="1730.0000000000016" y="360" width="20" height="20" as="geometry" />
        </mxCell>
        <mxCell id="JGmyNRBN7DjQSGYgZuc0-312" value="28" style="fillColor=#23445D;strokeColor=#FFFFFF;strokeWidth=2;fontColor=#FFFFFF;fontStyle=1" vertex="1" parent="1">
          <mxGeometry x="1850.0000000000016" y="360" width="20" height="20" as="geometry" />
        </mxCell>
        <mxCell id="JGmyNRBN7DjQSGYgZuc0-313" value="30" style="fillColor=#23445D;strokeColor=#FFFFFF;strokeWidth=2;fontColor=#FFFFFF;fontStyle=1" vertex="1" parent="1">
          <mxGeometry x="1890.0000000000016" y="360" width="20" height="20" as="geometry" />
        </mxCell>
        <mxCell id="JGmyNRBN7DjQSGYgZuc0-314" value="29" style="fillColor=#23445D;strokeColor=#FFFFFF;strokeWidth=2;fontColor=#FFFFFF;fontStyle=1" vertex="1" parent="1">
          <mxGeometry x="1870.0000000000016" y="360" width="20" height="20" as="geometry" />
        </mxCell>
        <mxCell id="JGmyNRBN7DjQSGYgZuc0-315" value="31" style="fillColor=#23445D;strokeColor=#FFFFFF;strokeWidth=2;fontColor=#FFFFFF;fontStyle=1" vertex="1" parent="1">
          <mxGeometry x="1910.0000000000016" y="360" width="20" height="20" as="geometry" />
        </mxCell>
        <mxCell id="JGmyNRBN7DjQSGYgZuc0-316" value="" style="strokeColor=#DEEDFF;fillColor=#D4E1F5;" vertex="1" parent="1">
          <mxGeometry x="1690" y="380" width="20" height="170" as="geometry" />
        </mxCell>
        <mxCell id="JGmyNRBN7DjQSGYgZuc0-317" value="" style="strokeColor=#DEEDFF;fillColor=#FFFFFF;" vertex="1" parent="1">
          <mxGeometry x="1710" y="380" width="20" height="170" as="geometry" />
        </mxCell>
        <mxCell id="JGmyNRBN7DjQSGYgZuc0-318" value="" style="strokeColor=#DEEDFF;fillColor=#FFFFFF;" vertex="1" parent="1">
          <mxGeometry x="1730" y="380" width="20" height="170" as="geometry" />
        </mxCell>
        <mxCell id="JGmyNRBN7DjQSGYgZuc0-319" value="" style="strokeColor=#DEEDFF;fillColor=#FFFFFF;" vertex="1" parent="1">
          <mxGeometry x="1750" y="380" width="20" height="170" as="geometry" />
        </mxCell>
        <mxCell id="JGmyNRBN7DjQSGYgZuc0-320" value="" style="strokeColor=#DEEDFF;fillColor=#FFFFFF;" vertex="1" parent="1">
          <mxGeometry x="1770" y="380" width="20" height="170" as="geometry" />
        </mxCell>
        <mxCell id="JGmyNRBN7DjQSGYgZuc0-321" value="" style="strokeColor=#DEEDFF;fillColor=#FFFFFF;" vertex="1" parent="1">
          <mxGeometry x="1790" y="380" width="20" height="170" as="geometry" />
        </mxCell>
        <mxCell id="JGmyNRBN7DjQSGYgZuc0-322" value="" style="strokeColor=#DEEDFF;fillColor=#D4E1F5;" vertex="1" parent="1">
          <mxGeometry x="1810" y="380" width="20" height="170" as="geometry" />
        </mxCell>
        <mxCell id="JGmyNRBN7DjQSGYgZuc0-323" value="" style="strokeColor=#DEEDFF;fillColor=#D4E1F5;" vertex="1" parent="1">
          <mxGeometry x="1830" y="380" width="20" height="170" as="geometry" />
        </mxCell>
        <mxCell id="JGmyNRBN7DjQSGYgZuc0-324" value="" style="strokeColor=#DEEDFF;fillColor=#FFFFFF;" vertex="1" parent="1">
          <mxGeometry x="1870" y="380" width="20" height="170" as="geometry" />
        </mxCell>
        <mxCell id="JGmyNRBN7DjQSGYgZuc0-325" value="" style="strokeColor=#DEEDFF;fillColor=#FFFFFF;" vertex="1" parent="1">
          <mxGeometry x="1850" y="380" width="20" height="170" as="geometry" />
        </mxCell>
        <mxCell id="JGmyNRBN7DjQSGYgZuc0-326" value="" style="strokeColor=#DEEDFF;fillColor=#FFFFFF;" vertex="1" parent="1">
          <mxGeometry x="1910" y="380" width="20" height="170" as="geometry" />
        </mxCell>
        <mxCell id="JGmyNRBN7DjQSGYgZuc0-327" value="" style="strokeColor=#DEEDFF;fillColor=#FFFFFF;" vertex="1" parent="1">
          <mxGeometry x="1890" y="380" width="20" height="170" as="geometry" />
        </mxCell>
        <mxCell id="JGmyNRBN7DjQSGYgZuc0-328" value="Sept 23" style="fillColor=#23445D;strokeColor=#FFFFFF;strokeWidth=2;fontColor=#FFFFFF;fontStyle=1" vertex="1" parent="1">
          <mxGeometry x="1930" y="340" width="600" height="20" as="geometry" />
        </mxCell>
        <mxCell id="JGmyNRBN7DjQSGYgZuc0-332" value="1" style="fillColor=#23445D;strokeColor=#FFFFFF;strokeWidth=2;fontColor=#FFFFFF;fontStyle=1" vertex="1" parent="1">
          <mxGeometry x="1930.0000000000018" y="360.00000000000006" width="20" height="20" as="geometry" />
        </mxCell>
        <mxCell id="JGmyNRBN7DjQSGYgZuc0-333" value="2" style="fillColor=#23445D;strokeColor=#FFFFFF;strokeWidth=2;fontColor=#FFFFFF;fontStyle=1" vertex="1" parent="1">
          <mxGeometry x="1950.0000000000018" y="360.00000000000006" width="20" height="20" as="geometry" />
        </mxCell>
        <mxCell id="JGmyNRBN7DjQSGYgZuc0-334" value="3" style="fillColor=#23445D;strokeColor=#FFFFFF;strokeWidth=2;fontColor=#FFFFFF;fontStyle=1" vertex="1" parent="1">
          <mxGeometry x="1970.0000000000018" y="360.00000000000006" width="20" height="20" as="geometry" />
        </mxCell>
        <mxCell id="JGmyNRBN7DjQSGYgZuc0-335" value="5" style="fillColor=#23445D;strokeColor=#FFFFFF;strokeWidth=2;fontColor=#FFFFFF;fontStyle=1" vertex="1" parent="1">
          <mxGeometry x="2010.0000000000018" y="360.00000000000006" width="20" height="20" as="geometry" />
        </mxCell>
        <mxCell id="JGmyNRBN7DjQSGYgZuc0-336" value="4" style="fillColor=#23445D;strokeColor=#FFFFFF;strokeWidth=2;fontColor=#FFFFFF;fontStyle=1" vertex="1" parent="1">
          <mxGeometry x="1990.0000000000018" y="360.00000000000006" width="20" height="20" as="geometry" />
        </mxCell>
        <mxCell id="JGmyNRBN7DjQSGYgZuc0-337" value="12" style="fillColor=#23445D;strokeColor=#FFFFFF;strokeWidth=2;fontColor=#FFFFFF;fontStyle=1" vertex="1" parent="1">
          <mxGeometry x="2150.000000000002" y="360.00000000000006" width="20" height="20" as="geometry" />
        </mxCell>
        <mxCell id="JGmyNRBN7DjQSGYgZuc0-338" value="11" style="fillColor=#23445D;strokeColor=#FFFFFF;strokeWidth=2;fontColor=#FFFFFF;fontStyle=1" vertex="1" parent="1">
          <mxGeometry x="2130.000000000002" y="360.00000000000006" width="20" height="20" as="geometry" />
        </mxCell>
        <mxCell id="JGmyNRBN7DjQSGYgZuc0-582" value="" style="edgeStyle=orthogonalEdgeStyle;rounded=0;orthogonalLoop=1;jettySize=auto;html=1;" edge="1" parent="1" source="JGmyNRBN7DjQSGYgZuc0-339" target="JGmyNRBN7DjQSGYgZuc0-380">
          <mxGeometry relative="1" as="geometry" />
        </mxCell>
        <mxCell id="JGmyNRBN7DjQSGYgZuc0-339" value="10" style="fillColor=#23445D;strokeColor=#FFFFFF;strokeWidth=2;fontColor=#FFFFFF;fontStyle=1" vertex="1" parent="1">
          <mxGeometry x="2110.000000000002" y="360.00000000000006" width="20" height="20" as="geometry" />
        </mxCell>
        <mxCell id="JGmyNRBN7DjQSGYgZuc0-340" value="9" style="fillColor=#23445D;strokeColor=#FFFFFF;strokeWidth=2;fontColor=#FFFFFF;fontStyle=1" vertex="1" parent="1">
          <mxGeometry x="2090.000000000002" y="360.00000000000006" width="20" height="20" as="geometry" />
        </mxCell>
        <mxCell id="JGmyNRBN7DjQSGYgZuc0-341" value="8" style="fillColor=#23445D;strokeColor=#FFFFFF;strokeWidth=2;fontColor=#FFFFFF;fontStyle=1" vertex="1" parent="1">
          <mxGeometry x="2070.000000000002" y="360.00000000000006" width="20" height="20" as="geometry" />
        </mxCell>
        <mxCell id="JGmyNRBN7DjQSGYgZuc0-342" value="7" style="fillColor=#23445D;strokeColor=#FFFFFF;strokeWidth=2;fontColor=#FFFFFF;fontStyle=1" vertex="1" parent="1">
          <mxGeometry x="2050.000000000002" y="360.00000000000006" width="20" height="20" as="geometry" />
        </mxCell>
        <mxCell id="JGmyNRBN7DjQSGYgZuc0-343" value="6" style="fillColor=#23445D;strokeColor=#FFFFFF;strokeWidth=2;fontColor=#FFFFFF;fontStyle=1" vertex="1" parent="1">
          <mxGeometry x="2030.0000000000018" y="360.00000000000006" width="20" height="20" as="geometry" />
        </mxCell>
        <mxCell id="JGmyNRBN7DjQSGYgZuc0-345" value="24" style="fillColor=#23445D;strokeColor=#FFFFFF;strokeWidth=2;fontColor=#FFFFFF;fontStyle=1" vertex="1" parent="1">
          <mxGeometry x="2390.000000000002" y="360.00000000000006" width="20" height="20" as="geometry" />
        </mxCell>
        <mxCell id="JGmyNRBN7DjQSGYgZuc0-346" value="23" style="fillColor=#23445D;strokeColor=#FFFFFF;strokeWidth=2;fontColor=#FFFFFF;fontStyle=1" vertex="1" parent="1">
          <mxGeometry x="2370.000000000002" y="360.00000000000006" width="20" height="20" as="geometry" />
        </mxCell>
        <mxCell id="JGmyNRBN7DjQSGYgZuc0-347" value="22" style="fillColor=#23445D;strokeColor=#FFFFFF;strokeWidth=2;fontColor=#FFFFFF;fontStyle=1" vertex="1" parent="1">
          <mxGeometry x="2350.000000000002" y="360.00000000000006" width="20" height="20" as="geometry" />
        </mxCell>
        <mxCell id="JGmyNRBN7DjQSGYgZuc0-348" value="21" style="fillColor=#23445D;strokeColor=#FFFFFF;strokeWidth=2;fontColor=#FFFFFF;fontStyle=1" vertex="1" parent="1">
          <mxGeometry x="2330.000000000002" y="360.00000000000006" width="20" height="20" as="geometry" />
        </mxCell>
        <mxCell id="JGmyNRBN7DjQSGYgZuc0-349" value="20" style="fillColor=#23445D;strokeColor=#FFFFFF;strokeWidth=2;fontColor=#FFFFFF;fontStyle=1" vertex="1" parent="1">
          <mxGeometry x="2310.000000000002" y="360" width="20" height="20" as="geometry" />
        </mxCell>
        <mxCell id="JGmyNRBN7DjQSGYgZuc0-350" value="19" style="fillColor=#23445D;strokeColor=#FFFFFF;strokeWidth=2;fontColor=#FFFFFF;fontStyle=1" vertex="1" parent="1">
          <mxGeometry x="2290.000000000002" y="360" width="20" height="20" as="geometry" />
        </mxCell>
        <mxCell id="JGmyNRBN7DjQSGYgZuc0-351" value="18" style="fillColor=#23445D;strokeColor=#FFFFFF;strokeWidth=2;fontColor=#FFFFFF;fontStyle=1" vertex="1" parent="1">
          <mxGeometry x="2270.000000000002" y="360" width="20" height="20" as="geometry" />
        </mxCell>
        <mxCell id="JGmyNRBN7DjQSGYgZuc0-352" value="17" style="fillColor=#23445D;strokeColor=#FFFFFF;strokeWidth=2;fontColor=#FFFFFF;fontStyle=1" vertex="1" parent="1">
          <mxGeometry x="2250.000000000002" y="360" width="20" height="20" as="geometry" />
        </mxCell>
        <mxCell id="JGmyNRBN7DjQSGYgZuc0-353" value="16" style="fillColor=#23445D;strokeColor=#FFFFFF;strokeWidth=2;fontColor=#FFFFFF;fontStyle=1" vertex="1" parent="1">
          <mxGeometry x="2230.000000000002" y="360" width="20" height="20" as="geometry" />
        </mxCell>
        <mxCell id="JGmyNRBN7DjQSGYgZuc0-354" value="15" style="fillColor=#23445D;strokeColor=#FFFFFF;strokeWidth=2;fontColor=#FFFFFF;fontStyle=1" vertex="1" parent="1">
          <mxGeometry x="2210.000000000002" y="360" width="20" height="20" as="geometry" />
        </mxCell>
        <mxCell id="JGmyNRBN7DjQSGYgZuc0-355" value="14" style="fillColor=#23445D;strokeColor=#FFFFFF;strokeWidth=2;fontColor=#FFFFFF;fontStyle=1" vertex="1" parent="1">
          <mxGeometry x="2190.000000000002" y="360" width="20" height="20" as="geometry" />
        </mxCell>
        <mxCell id="JGmyNRBN7DjQSGYgZuc0-356" value="13" style="fillColor=#23445D;strokeColor=#FFFFFF;strokeWidth=2;fontColor=#FFFFFF;fontStyle=1" vertex="1" parent="1">
          <mxGeometry x="2170.000000000002" y="360" width="20" height="20" as="geometry" />
        </mxCell>
        <mxCell id="JGmyNRBN7DjQSGYgZuc0-778" value="" style="edgeStyle=orthogonalEdgeStyle;rounded=0;orthogonalLoop=1;jettySize=auto;html=1;" edge="1" parent="1" source="JGmyNRBN7DjQSGYgZuc0-357" target="JGmyNRBN7DjQSGYgZuc0-777">
          <mxGeometry relative="1" as="geometry" />
        </mxCell>
        <mxCell id="JGmyNRBN7DjQSGYgZuc0-357" value="29" style="fillColor=#23445D;strokeColor=#FFFFFF;strokeWidth=2;fontColor=#FFFFFF;fontStyle=1" vertex="1" parent="1">
          <mxGeometry x="2490.000000000002" y="360" width="20" height="20" as="geometry" />
        </mxCell>
        <mxCell id="JGmyNRBN7DjQSGYgZuc0-358" value="28" style="fillColor=#23445D;strokeColor=#FFFFFF;strokeWidth=2;fontColor=#FFFFFF;fontStyle=1" vertex="1" parent="1">
          <mxGeometry x="2470.000000000002" y="360" width="20" height="20" as="geometry" />
        </mxCell>
        <mxCell id="JGmyNRBN7DjQSGYgZuc0-359" value="27" style="fillColor=#23445D;strokeColor=#FFFFFF;strokeWidth=2;fontColor=#FFFFFF;fontStyle=1" vertex="1" parent="1">
          <mxGeometry x="2450.000000000002" y="360" width="20" height="20" as="geometry" />
        </mxCell>
        <mxCell id="JGmyNRBN7DjQSGYgZuc0-360" value="26" style="fillColor=#23445D;strokeColor=#FFFFFF;strokeWidth=2;fontColor=#FFFFFF;fontStyle=1" vertex="1" parent="1">
          <mxGeometry x="2430.000000000002" y="360" width="20" height="20" as="geometry" />
        </mxCell>
        <mxCell id="JGmyNRBN7DjQSGYgZuc0-361" value="25" style="fillColor=#23445D;strokeColor=#FFFFFF;strokeWidth=2;fontColor=#FFFFFF;fontStyle=1" vertex="1" parent="1">
          <mxGeometry x="2410.000000000002" y="360" width="20" height="20" as="geometry" />
        </mxCell>
        <mxCell id="JGmyNRBN7DjQSGYgZuc0-364" value="30" style="fillColor=#23445D;strokeColor=#FFFFFF;strokeWidth=2;fontColor=#FFFFFF;fontStyle=1" vertex="1" parent="1">
          <mxGeometry x="2510.000000000002" y="360" width="20" height="20" as="geometry" />
        </mxCell>
        <mxCell id="JGmyNRBN7DjQSGYgZuc0-365" value="" style="strokeColor=#DEEDFF;fillColor=#D4E1F5;" vertex="1" parent="1">
          <mxGeometry x="1950" y="380" width="20" height="170" as="geometry" />
        </mxCell>
        <mxCell id="JGmyNRBN7DjQSGYgZuc0-366" value="" style="strokeColor=#DEEDFF;fillColor=#FFFFFF;" vertex="1" parent="1">
          <mxGeometry x="1930" y="380" width="20" height="170" as="geometry" />
        </mxCell>
        <mxCell id="JGmyNRBN7DjQSGYgZuc0-367" value="" style="strokeColor=#DEEDFF;fillColor=#D4E1F5;" vertex="1" parent="1">
          <mxGeometry x="1970" y="380" width="20" height="170" as="geometry" />
        </mxCell>
        <mxCell id="JGmyNRBN7DjQSGYgZuc0-368" value="" style="strokeColor=#DEEDFF;fillColor=#FFFFFF;" vertex="1" parent="1">
          <mxGeometry x="1990" y="380" width="20" height="170" as="geometry" />
        </mxCell>
        <mxCell id="JGmyNRBN7DjQSGYgZuc0-369" value="" style="strokeColor=#DEEDFF;fillColor=#FFFFFF;" vertex="1" parent="1">
          <mxGeometry x="2050" y="380" width="20" height="170" as="geometry" />
        </mxCell>
        <mxCell id="JGmyNRBN7DjQSGYgZuc0-370" value="" style="strokeColor=#DEEDFF;fillColor=#D4E1F5;" vertex="1" parent="1">
          <mxGeometry x="2090" y="380" width="20" height="170" as="geometry" />
        </mxCell>
        <mxCell id="JGmyNRBN7DjQSGYgZuc0-371" value="" style="strokeColor=#DEEDFF;fillColor=#FFFFFF;" vertex="1" parent="1">
          <mxGeometry x="2070" y="380" width="20" height="170" as="geometry" />
        </mxCell>
        <mxCell id="JGmyNRBN7DjQSGYgZuc0-372" value="" style="strokeColor=#DEEDFF;fillColor=#FFFFFF;" vertex="1" parent="1">
          <mxGeometry x="2010" y="380" width="20" height="170" as="geometry" />
        </mxCell>
        <mxCell id="JGmyNRBN7DjQSGYgZuc0-373" value="" style="strokeColor=#DEEDFF;fillColor=#FFFFFF;" vertex="1" parent="1">
          <mxGeometry x="2030" y="380" width="20" height="170" as="geometry" />
        </mxCell>
        <mxCell id="JGmyNRBN7DjQSGYgZuc0-648" value="" style="edgeStyle=orthogonalEdgeStyle;rounded=0;orthogonalLoop=1;jettySize=auto;html=1;" edge="1" parent="1" source="JGmyNRBN7DjQSGYgZuc0-374" target="JGmyNRBN7DjQSGYgZuc0-380">
          <mxGeometry relative="1" as="geometry" />
        </mxCell>
        <mxCell id="JGmyNRBN7DjQSGYgZuc0-374" value="" style="strokeColor=#DEEDFF;fillColor=#D4E1F5;" vertex="1" parent="1">
          <mxGeometry x="2230" y="380" width="20" height="170" as="geometry" />
        </mxCell>
        <mxCell id="JGmyNRBN7DjQSGYgZuc0-375" value="" style="strokeColor=#DEEDFF;fillColor=#FFFFFF;" vertex="1" parent="1">
          <mxGeometry x="2210" y="380" width="20" height="170" as="geometry" />
        </mxCell>
        <mxCell id="JGmyNRBN7DjQSGYgZuc0-376" value="" style="strokeColor=#DEEDFF;fillColor=#FFFFFF;" vertex="1" parent="1">
          <mxGeometry x="2190" y="380" width="20" height="170" as="geometry" />
        </mxCell>
        <mxCell id="JGmyNRBN7DjQSGYgZuc0-377" value="" style="strokeColor=#DEEDFF;fillColor=#FFFFFF;" vertex="1" parent="1">
          <mxGeometry x="2170" y="380" width="20" height="170" as="geometry" />
        </mxCell>
        <mxCell id="JGmyNRBN7DjQSGYgZuc0-378" value="" style="strokeColor=#DEEDFF;fillColor=#FFFFFF;" vertex="1" parent="1">
          <mxGeometry x="2150" y="380" width="20" height="170" as="geometry" />
        </mxCell>
        <mxCell id="JGmyNRBN7DjQSGYgZuc0-379" value="" style="strokeColor=#DEEDFF;fillColor=#FFFFFF;" vertex="1" parent="1">
          <mxGeometry x="2130" y="380" width="20" height="170" as="geometry" />
        </mxCell>
        <mxCell id="JGmyNRBN7DjQSGYgZuc0-380" value="" style="strokeColor=#DEEDFF;fillColor=#D4E1F5;" vertex="1" parent="1">
          <mxGeometry x="2110" y="380" width="20" height="170" as="geometry" />
        </mxCell>
        <mxCell id="JGmyNRBN7DjQSGYgZuc0-381" value="" style="strokeColor=#DEEDFF;fillColor=#FFFFFF;" vertex="1" parent="1">
          <mxGeometry x="2350" y="380" width="20" height="170" as="geometry" />
        </mxCell>
        <mxCell id="JGmyNRBN7DjQSGYgZuc0-382" value="" style="strokeColor=#DEEDFF;fillColor=#FFFFFF;" vertex="1" parent="1">
          <mxGeometry x="2330" y="380" width="20" height="170" as="geometry" />
        </mxCell>
        <mxCell id="JGmyNRBN7DjQSGYgZuc0-383" value="" style="strokeColor=#DEEDFF;fillColor=#FFFFFF;" vertex="1" parent="1">
          <mxGeometry x="2310" y="380" width="20" height="170" as="geometry" />
        </mxCell>
        <mxCell id="JGmyNRBN7DjQSGYgZuc0-384" value="" style="strokeColor=#DEEDFF;fillColor=#FFFFFF;" vertex="1" parent="1">
          <mxGeometry x="2290" y="380" width="20" height="170" as="geometry" />
        </mxCell>
        <mxCell id="JGmyNRBN7DjQSGYgZuc0-385" value="" style="strokeColor=#DEEDFF;fillColor=#FFFFFF;" vertex="1" parent="1">
          <mxGeometry x="2270" y="380" width="20" height="170" as="geometry" />
        </mxCell>
        <mxCell id="JGmyNRBN7DjQSGYgZuc0-386" value="" style="strokeColor=#DEEDFF;fillColor=#D4E1F5;" vertex="1" parent="1">
          <mxGeometry x="2250" y="380" width="20" height="170" as="geometry" />
        </mxCell>
        <mxCell id="JGmyNRBN7DjQSGYgZuc0-387" value="" style="strokeColor=#DEEDFF;fillColor=#FFFFFF;" vertex="1" parent="1">
          <mxGeometry x="2430" y="380" width="20" height="170" as="geometry" />
        </mxCell>
        <mxCell id="JGmyNRBN7DjQSGYgZuc0-388" value="" style="strokeColor=#DEEDFF;fillColor=#FFFFFF;" vertex="1" parent="1">
          <mxGeometry x="2410" y="380" width="20" height="170" as="geometry" />
        </mxCell>
        <mxCell id="JGmyNRBN7DjQSGYgZuc0-389" value="" style="strokeColor=#DEEDFF;fillColor=#D4E1F5;" vertex="1" parent="1">
          <mxGeometry x="2390" y="380" width="20" height="170" as="geometry" />
        </mxCell>
        <mxCell id="JGmyNRBN7DjQSGYgZuc0-390" value="" style="strokeColor=#DEEDFF;fillColor=#D4E1F5;" vertex="1" parent="1">
          <mxGeometry x="2370" y="380" width="20" height="170" as="geometry" />
        </mxCell>
        <mxCell id="JGmyNRBN7DjQSGYgZuc0-392" value="" style="strokeColor=#DEEDFF;fillColor=#FFFFFF;" vertex="1" parent="1">
          <mxGeometry x="2490" y="380" width="20" height="170" as="geometry" />
        </mxCell>
        <mxCell id="JGmyNRBN7DjQSGYgZuc0-393" value="" style="strokeColor=#DEEDFF;fillColor=#FFFFFF;" vertex="1" parent="1">
          <mxGeometry x="2470" y="380" width="20" height="170" as="geometry" />
        </mxCell>
        <mxCell id="JGmyNRBN7DjQSGYgZuc0-394" value="" style="strokeColor=#DEEDFF;fillColor=#FFFFFF;" vertex="1" parent="1">
          <mxGeometry x="2450" y="380" width="20" height="170" as="geometry" />
        </mxCell>
        <mxCell id="JGmyNRBN7DjQSGYgZuc0-395" value="" style="strokeColor=#DEEDFF;fillColor=#D4E1F5;" vertex="1" parent="1">
          <mxGeometry x="2510" y="380" width="20" height="170" as="geometry" />
        </mxCell>
        <mxCell id="JGmyNRBN7DjQSGYgZuc0-584" value="6" style="strokeColor=#DEEDFF" vertex="1" parent="1">
          <mxGeometry x="86.4999999999999" y="490.00000000000045" width="40" height="20" as="geometry" />
        </mxCell>
        <mxCell id="JGmyNRBN7DjQSGYgZuc0-622" value="&lt;div&gt;Stage 1 &lt;br&gt;&lt;/div&gt;&lt;div&gt;(2 weeks)&lt;/div&gt;" style="shape=offPageConnector;whiteSpace=wrap;html=1;fillColor=#0075E8;fontSize=15;fontColor=#FFFFFF;size=0.5093750000000015;verticalAlign=top;strokeColor=none;" vertex="1" parent="1">
          <mxGeometry x="1123" y="-267.5" width="160" height="60" as="geometry" />
        </mxCell>
        <mxCell id="JGmyNRBN7DjQSGYgZuc0-623" value="&lt;div&gt;&lt;span&gt;Stage 3&lt;/span&gt;&lt;/div&gt;&lt;div&gt;&lt;span&gt;(2 weeks)&lt;br&gt;&lt;/span&gt;&lt;/div&gt;&lt;div&gt;&lt;span&gt;&lt;/span&gt;&lt;/div&gt;" style="shape=offPageConnector;whiteSpace=wrap;html=1;fillColor=#0075E8;fontSize=15;fontColor=#FFFFFF;size=0.5093750000000015;verticalAlign=top;strokeColor=none;" vertex="1" parent="1">
          <mxGeometry x="1577" y="-267.5" width="160" height="60" as="geometry" />
        </mxCell>
        <mxCell id="JGmyNRBN7DjQSGYgZuc0-624" value="&lt;br&gt;&lt;div&gt;&lt;span&gt;&lt;br&gt;&lt;/span&gt;&lt;/div&gt;&lt;div&gt;&lt;span&gt;&lt;br&gt;&lt;/span&gt;&lt;/div&gt;&lt;div&gt;&lt;span&gt;Stage 2&lt;/span&gt;&lt;/div&gt;&lt;div&gt;&lt;span&gt;(2 weeks)&lt;/span&gt;&lt;/div&gt;" style="shape=offPageConnector;whiteSpace=wrap;html=1;fillColor=#0075E8;fontSize=15;fontColor=#FFFFFF;size=0.4178571428571445;flipV=1;verticalAlign=bottom;strokeColor=none;spacingBottom=4;" vertex="1" parent="1">
          <mxGeometry x="1351" y="-162.5" width="160" height="55" as="geometry" />
        </mxCell>
        <mxCell id="JGmyNRBN7DjQSGYgZuc0-625" value="&lt;div&gt;&lt;span&gt;Stage 4&lt;/span&gt;&lt;/div&gt;&lt;div&gt;&lt;span&gt;(2 weeks)&lt;br&gt;&lt;/span&gt;&lt;/div&gt;" style="shape=offPageConnector;whiteSpace=wrap;html=1;fillColor=#0075E8;fontSize=15;fontColor=#FFFFFF;size=0.4178571428571445;flipV=1;verticalAlign=bottom;strokeColor=none;spacingBottom=4;" vertex="1" parent="1">
          <mxGeometry x="1804" y="-162.5" width="160" height="55" as="geometry" />
        </mxCell>
        <mxCell id="JGmyNRBN7DjQSGYgZuc0-626" value="" style="ellipse;whiteSpace=wrap;html=1;fillColor=#61BAFF;fontSize=28;fontColor=#004D99;strokeWidth=3;strokeColor=#004D99;" vertex="1" parent="1">
          <mxGeometry x="1194" y="-192.5" width="20" height="20" as="geometry" />
        </mxCell>
        <mxCell id="JGmyNRBN7DjQSGYgZuc0-627" value="" style="ellipse;whiteSpace=wrap;html=1;fillColor=#61BAFF;fontSize=28;fontColor=#004D99;strokeWidth=3;strokeColor=#004D99;" vertex="1" parent="1">
          <mxGeometry x="1421" y="-192.5" width="20" height="20" as="geometry" />
        </mxCell>
        <mxCell id="JGmyNRBN7DjQSGYgZuc0-628" value="" style="ellipse;whiteSpace=wrap;html=1;fillColor=#61BAFF;fontSize=28;fontColor=#004D99;strokeWidth=3;strokeColor=#004D99;" vertex="1" parent="1">
          <mxGeometry x="1647" y="-192.5" width="20" height="20" as="geometry" />
        </mxCell>
        <mxCell id="JGmyNRBN7DjQSGYgZuc0-629" value="" style="ellipse;whiteSpace=wrap;html=1;fillColor=#61BAFF;fontSize=28;fontColor=#004D99;strokeWidth=3;strokeColor=#004D99;" vertex="1" parent="1">
          <mxGeometry x="1874" y="-192.5" width="20" height="20" as="geometry" />
        </mxCell>
        <mxCell id="JGmyNRBN7DjQSGYgZuc0-630" value="&lt;div&gt;&lt;div&gt;&lt;font style=&quot;font-size: 24px;&quot;&gt;&lt;b&gt;&lt;font&gt;&lt;br&gt;&lt;/font&gt;&lt;/b&gt;&lt;/font&gt;&lt;/div&gt;&lt;div&gt;&lt;font size=&quot;3&quot;&gt;&lt;b&gt;Meeting with Prospera Team&lt;/b&gt;&lt;/font&gt;&lt;/div&gt;&lt;div&gt;&lt;font size=&quot;3&quot;&gt;&lt;b&gt;&lt;br&gt;&lt;/b&gt;&lt;/font&gt;&lt;/div&gt;&lt;div&gt;&lt;font size=&quot;3&quot;&gt;&lt;b&gt;&lt;br&gt;&lt;/b&gt;&lt;/font&gt;&lt;/div&gt;&lt;div&gt;&lt;font size=&quot;3&quot;&gt;&lt;b&gt;&lt;br&gt;&lt;/b&gt;&lt;/font&gt;&lt;/div&gt;&lt;div&gt;&lt;font size=&quot;3&quot;&gt;&lt;b&gt;&lt;br&gt;&lt;/b&gt;&lt;/font&gt;&lt;/div&gt;&lt;/div&gt;" style="text;html=1;spacing=5;spacingTop=-20;whiteSpace=wrap;overflow=hidden;strokeColor=none;strokeWidth=3;fillColor=#E6E6E6;fontSize=13;fontColor=#000000;align=center;rounded=1;" vertex="1" parent="1">
          <mxGeometry x="1096.5" y="-160" width="199" height="72.5" as="geometry" />
        </mxCell>
        <mxCell id="JGmyNRBN7DjQSGYgZuc0-632" value="&lt;div&gt;&lt;br&gt;&lt;/div&gt;&lt;div&gt;&lt;b&gt;&lt;font style=&quot;font-size: 18px;&quot;&gt;Identification Data Source &amp;amp; &lt;/font&gt;&lt;/b&gt;&lt;/div&gt;&lt;b&gt;&lt;font size=&quot;3&quot;&gt;Required Data (customer acquisition)&lt;/font&gt;&lt;/b&gt;" style="text;html=1;spacing=5;spacingTop=-20;whiteSpace=wrap;overflow=hidden;strokeColor=none;strokeWidth=3;fillColor=#E6E6E6;fontSize=13;fontColor=#000000;align=center;rounded=1;" vertex="1" parent="1">
          <mxGeometry x="1549" y="-157.5" width="215" height="90" as="geometry" />
        </mxCell>
        <mxCell id="JGmyNRBN7DjQSGYgZuc0-633" value="&lt;div&gt;&lt;b&gt;&lt;font style=&quot;font-size: 18px;&quot;&gt;&lt;br&gt;&lt;/font&gt;&lt;/b&gt;&lt;/div&gt;&lt;div&gt;&lt;b&gt;&lt;font size=&quot;3&quot;&gt;Exploration &amp;amp; Analysis Planning&lt;/font&gt;&lt;/b&gt;&lt;/div&gt;" style="text;html=1;spacing=5;spacingTop=-20;whiteSpace=wrap;overflow=hidden;strokeColor=none;strokeWidth=3;fillColor=#E6E6E6;fontSize=13;fontColor=#000000;align=center;rounded=1;" vertex="1" parent="1">
          <mxGeometry x="1775" y="-277.5" width="215" height="60" as="geometry" />
        </mxCell>
        <mxCell id="JGmyNRBN7DjQSGYgZuc0-667" value="&lt;div&gt;&lt;br&gt;&lt;/div&gt;&lt;div&gt;&lt;b&gt;&lt;font style=&quot;font-size: 17px;&quot;&gt;Business Understanding (customer acquisition)&lt;/font&gt;&lt;/b&gt;&lt;/div&gt;" style="text;html=1;spacing=5;spacingTop=-20;whiteSpace=wrap;overflow=hidden;strokeColor=none;strokeWidth=3;fillColor=#E6E6E6;fontSize=13;fontColor=#000000;align=center;rounded=1;" vertex="1" parent="1">
          <mxGeometry x="1333" y="-280" width="199" height="72.5" as="geometry" />
        </mxCell>
        <mxCell id="JGmyNRBN7DjQSGYgZuc0-681" value="&lt;div&gt;Stage 5 &lt;br&gt;&lt;/div&gt;&lt;div&gt;(2 weeks)&lt;/div&gt;" style="shape=offPageConnector;whiteSpace=wrap;html=1;fillColor=#0075E8;fontSize=15;fontColor=#FFFFFF;size=0.5093750000000015;verticalAlign=top;strokeColor=none;" vertex="1" parent="1">
          <mxGeometry x="1105" y="95" width="160" height="60" as="geometry" />
        </mxCell>
        <mxCell id="JGmyNRBN7DjQSGYgZuc0-682" value="&lt;div&gt;&lt;span&gt;Stage 7&lt;br&gt;&lt;/span&gt;&lt;/div&gt;&lt;div&gt;&lt;span&gt;(2 weeks)&lt;br&gt;&lt;/span&gt;&lt;/div&gt;&lt;div&gt;&lt;span&gt;&lt;/span&gt;&lt;/div&gt;" style="shape=offPageConnector;whiteSpace=wrap;html=1;fillColor=#0075E8;fontSize=15;fontColor=#FFFFFF;size=0.5093750000000015;verticalAlign=top;strokeColor=none;" vertex="1" parent="1">
          <mxGeometry x="1559" y="95" width="160" height="60" as="geometry" />
        </mxCell>
        <mxCell id="JGmyNRBN7DjQSGYgZuc0-683" value="&lt;br&gt;&lt;div&gt;&lt;span&gt;&lt;br&gt;&lt;/span&gt;&lt;/div&gt;&lt;div&gt;&lt;span&gt;&lt;br&gt;&lt;/span&gt;&lt;/div&gt;&lt;div&gt;&lt;span&gt;Stage 6&lt;br&gt;&lt;/span&gt;&lt;/div&gt;&lt;div&gt;&lt;span&gt;(2 weeks)&lt;/span&gt;&lt;/div&gt;" style="shape=offPageConnector;whiteSpace=wrap;html=1;fillColor=#0075E8;fontSize=15;fontColor=#FFFFFF;size=0.4178571428571445;flipV=1;verticalAlign=bottom;strokeColor=none;spacingBottom=4;" vertex="1" parent="1">
          <mxGeometry x="1333" y="200" width="160" height="55" as="geometry" />
        </mxCell>
        <mxCell id="JGmyNRBN7DjQSGYgZuc0-684" value="&lt;div&gt;&lt;span&gt;Stage 8&lt;br&gt;&lt;/span&gt;&lt;/div&gt;&lt;div&gt;&lt;span&gt;(2 weeks)&lt;br&gt;&lt;/span&gt;&lt;/div&gt;" style="shape=offPageConnector;whiteSpace=wrap;html=1;fillColor=#0075E8;fontSize=15;fontColor=#FFFFFF;size=0.4178571428571445;flipV=1;verticalAlign=bottom;strokeColor=none;spacingBottom=4;" vertex="1" parent="1">
          <mxGeometry x="1786" y="200" width="160" height="55" as="geometry" />
        </mxCell>
        <mxCell id="JGmyNRBN7DjQSGYgZuc0-685" value="" style="ellipse;whiteSpace=wrap;html=1;fillColor=#61BAFF;fontSize=28;fontColor=#004D99;strokeWidth=3;strokeColor=#004D99;" vertex="1" parent="1">
          <mxGeometry x="1176" y="170" width="20" height="20" as="geometry" />
        </mxCell>
        <mxCell id="JGmyNRBN7DjQSGYgZuc0-686" value="" style="ellipse;whiteSpace=wrap;html=1;fillColor=#61BAFF;fontSize=28;fontColor=#004D99;strokeWidth=3;strokeColor=#004D99;" vertex="1" parent="1">
          <mxGeometry x="1403" y="170" width="20" height="20" as="geometry" />
        </mxCell>
        <mxCell id="JGmyNRBN7DjQSGYgZuc0-687" value="" style="ellipse;whiteSpace=wrap;html=1;fillColor=#61BAFF;fontSize=28;fontColor=#004D99;strokeWidth=3;strokeColor=#004D99;" vertex="1" parent="1">
          <mxGeometry x="1629" y="170" width="20" height="20" as="geometry" />
        </mxCell>
        <mxCell id="JGmyNRBN7DjQSGYgZuc0-688" value="" style="ellipse;whiteSpace=wrap;html=1;fillColor=#61BAFF;fontSize=28;fontColor=#004D99;strokeWidth=3;strokeColor=#004D99;" vertex="1" parent="1">
          <mxGeometry x="1856" y="170" width="20" height="20" as="geometry" />
        </mxCell>
        <mxCell id="JGmyNRBN7DjQSGYgZuc0-689" value="&lt;div&gt;&lt;font style=&quot;font-size: 24px;&quot;&gt;&lt;b&gt;&lt;font&gt;&lt;br&gt;&lt;/font&gt;&lt;/b&gt;&lt;/font&gt;&lt;/div&gt;&lt;div&gt;&lt;font size=&quot;3&quot;&gt;&lt;b&gt;Data Preprosesing / Cleansing&lt;/b&gt;&lt;/font&gt;&lt;/div&gt;" style="text;html=1;spacing=5;spacingTop=-20;whiteSpace=wrap;overflow=hidden;strokeColor=none;strokeWidth=3;fillColor=#E6E6E6;fontSize=13;fontColor=#000000;align=center;rounded=1;" vertex="1" parent="1">
          <mxGeometry x="1078.5" y="202.5" width="199" height="70" as="geometry" />
        </mxCell>
        <mxCell id="JGmyNRBN7DjQSGYgZuc0-690" value="&lt;div&gt;&lt;br&gt;&lt;/div&gt;&lt;div&gt;&lt;br&gt;&lt;/div&gt;&lt;div&gt;&lt;b&gt;&lt;font size=&quot;3&quot;&gt;Exploration &amp;amp; Analysis&lt;/font&gt;&lt;/b&gt;&lt;/div&gt;" style="text;html=1;spacing=5;spacingTop=-20;whiteSpace=wrap;overflow=hidden;strokeColor=none;strokeWidth=3;fillColor=#E6E6E6;fontSize=13;fontColor=#000000;align=center;rounded=1;" vertex="1" parent="1">
          <mxGeometry x="1531" y="205" width="215" height="67.5" as="geometry" />
        </mxCell>
        <mxCell id="JGmyNRBN7DjQSGYgZuc0-691" value="&lt;div&gt;&lt;b&gt;&lt;br&gt;&lt;/b&gt;&lt;/div&gt;&lt;div&gt;&lt;b&gt;&lt;br&gt;&lt;/b&gt;&lt;/div&gt;&lt;div&gt;&lt;b&gt;&lt;font size=&quot;3&quot;&gt;Build Visualisation&lt;/font&gt;&lt;/b&gt;&lt;/div&gt;" style="text;html=1;spacing=5;spacingTop=-20;whiteSpace=wrap;overflow=hidden;strokeColor=none;strokeWidth=3;fillColor=#E6E6E6;fontSize=13;fontColor=#000000;align=center;rounded=1;" vertex="1" parent="1">
          <mxGeometry x="1757" y="85" width="215" height="60" as="geometry" />
        </mxCell>
        <mxCell id="JGmyNRBN7DjQSGYgZuc0-692" value="&lt;div&gt;&lt;br&gt;&lt;/div&gt;&lt;div&gt;&lt;br&gt;&lt;/div&gt;&lt;div&gt;&lt;font size=&quot;3&quot;&gt;&lt;b&gt;Data Collection&lt;/b&gt;&lt;/font&gt;&lt;/div&gt;" style="text;html=1;spacing=5;spacingTop=-20;whiteSpace=wrap;overflow=hidden;strokeColor=none;strokeWidth=3;fillColor=#E6E6E6;fontSize=13;fontColor=#000000;align=center;rounded=1;" vertex="1" parent="1">
          <mxGeometry x="1315" y="82.5" width="199" height="72.5" as="geometry" />
        </mxCell>
        <mxCell id="JGmyNRBN7DjQSGYgZuc0-699" value="" style="edgeStyle=elbowEdgeStyle;elbow=vertical;endArrow=classic;html=1;curved=0;rounded=0;endSize=8;startSize=8;exitX=0.512;exitY=0.01;exitDx=0;exitDy=0;exitPerimeter=0;dashed=1;strokeWidth=5;" edge="1" parent="1" source="JGmyNRBN7DjQSGYgZuc0-625">
          <mxGeometry width="50" height="50" relative="1" as="geometry">
            <mxPoint x="1665.5" y="22.5" as="sourcePoint" />
            <mxPoint x="1185.5" y="92.5" as="targetPoint" />
          </mxGeometry>
        </mxCell>
        <mxCell id="JGmyNRBN7DjQSGYgZuc0-707" value="" style="strokeColor=#D4E1F5;" vertex="1" parent="1">
          <mxGeometry x="686.5" y="380" width="20" height="170" as="geometry" />
        </mxCell>
        <mxCell id="JGmyNRBN7DjQSGYgZuc0-708" value="" style="strokeColor=#D4E1F5;" vertex="1" parent="1">
          <mxGeometry x="706.5" y="380" width="20" height="170" as="geometry" />
        </mxCell>
        <mxCell id="JGmyNRBN7DjQSGYgZuc0-709" value="" style="strokeColor=#DEEDFF;fillColor=#FFFFFF;" vertex="1" parent="1">
          <mxGeometry x="726.5" y="380" width="20" height="170" as="geometry" />
        </mxCell>
        <mxCell id="JGmyNRBN7DjQSGYgZuc0-710" value="" style="strokeColor=#DEEDFF;fillColor=#FFFFFF;" vertex="1" parent="1">
          <mxGeometry x="746.5" y="380" width="20" height="170" as="geometry" />
        </mxCell>
        <mxCell id="JGmyNRBN7DjQSGYgZuc0-711" value="" style="strokeColor=#FFCC99;fillColor=#FFCC99;" vertex="1" parent="1">
          <mxGeometry x="1024.75" y="400" width="23.5" height="20" as="geometry" />
        </mxCell>
        <mxCell id="JGmyNRBN7DjQSGYgZuc0-712" value="" style="strokeColor=#FFCC99;fillColor=#FFCC99;" vertex="1" parent="1">
          <mxGeometry x="1006.5" y="400" width="20" height="20" as="geometry" />
        </mxCell>
        <mxCell id="JGmyNRBN7DjQSGYgZuc0-713" value="" style="strokeColor=#FFCC99;fillColor=#FFCC99;" vertex="1" parent="1">
          <mxGeometry x="1046.5" y="400" width="20" height="20" as="geometry" />
        </mxCell>
        <mxCell id="JGmyNRBN7DjQSGYgZuc0-714" value="" style="strokeColor=#FFCC99;fillColor=#FFCC99;" vertex="1" parent="1">
          <mxGeometry x="1066.5" y="400" width="20" height="20" as="geometry" />
        </mxCell>
        <mxCell id="JGmyNRBN7DjQSGYgZuc0-715" value="" style="strokeColor=#FFCC99;fillColor=#FFCC99;" vertex="1" parent="1">
          <mxGeometry x="1086.5" y="400" width="20" height="20" as="geometry" />
        </mxCell>
        <mxCell id="JGmyNRBN7DjQSGYgZuc0-716" value="" style="strokeColor=#FFCC99;fillColor=#FFCC99;" vertex="1" parent="1">
          <mxGeometry x="1146.5" y="400" width="20" height="20" as="geometry" />
        </mxCell>
        <mxCell id="JGmyNRBN7DjQSGYgZuc0-717" value="" style="strokeColor=#FFCC99;fillColor=#FFCC99;" vertex="1" parent="1">
          <mxGeometry x="1166.5" y="400" width="20" height="20" as="geometry" />
        </mxCell>
        <mxCell id="JGmyNRBN7DjQSGYgZuc0-718" value="" style="strokeColor=#FFCC99;fillColor=#FFCC99;" vertex="1" parent="1">
          <mxGeometry x="1186.5" y="400" width="20" height="20" as="geometry" />
        </mxCell>
        <mxCell id="JGmyNRBN7DjQSGYgZuc0-719" value="" style="strokeColor=#FFCC99;fillColor=#FFCC99;" vertex="1" parent="1">
          <mxGeometry x="1206.5" y="400" width="20" height="20" as="geometry" />
        </mxCell>
        <mxCell id="JGmyNRBN7DjQSGYgZuc0-720" value="" style="strokeColor=#FFCC99;fillColor=#FFCC99;" vertex="1" parent="1">
          <mxGeometry x="1226.5" y="400" width="20" height="20" as="geometry" />
        </mxCell>
        <mxCell id="JGmyNRBN7DjQSGYgZuc0-721" value="" style="strokeColor=#FFFF99;fillColor=#FFFF99;" vertex="1" parent="1">
          <mxGeometry x="1286.5" y="420" width="23.5" height="30" as="geometry" />
        </mxCell>
        <mxCell id="JGmyNRBN7DjQSGYgZuc0-722" value="" style="strokeColor=#FFFF99;fillColor=#FFFF99;" vertex="1" parent="1">
          <mxGeometry x="1310" y="420" width="20" height="30" as="geometry" />
        </mxCell>
        <mxCell id="JGmyNRBN7DjQSGYgZuc0-723" value="" style="strokeColor=#FFFF99;fillColor=#FFFF99;" vertex="1" parent="1">
          <mxGeometry x="1330" y="420" width="20" height="30" as="geometry" />
        </mxCell>
        <mxCell id="JGmyNRBN7DjQSGYgZuc0-724" value="" style="strokeColor=#FFFF99;fillColor=#FFFF99;" vertex="1" parent="1">
          <mxGeometry x="1350" y="420" width="20" height="30" as="geometry" />
        </mxCell>
        <mxCell id="JGmyNRBN7DjQSGYgZuc0-725" value="" style="strokeColor=#FFFF99;fillColor=#FFFF99;" vertex="1" parent="1">
          <mxGeometry x="1370" y="420" width="20" height="30" as="geometry" />
        </mxCell>
        <mxCell id="JGmyNRBN7DjQSGYgZuc0-726" value="" style="strokeColor=#FFFF99;fillColor=#FFFF99;" vertex="1" parent="1">
          <mxGeometry x="1430" y="420" width="20" height="30" as="geometry" />
        </mxCell>
        <mxCell id="JGmyNRBN7DjQSGYgZuc0-727" value="" style="strokeColor=#FFFF99;fillColor=#FFFF99;" vertex="1" parent="1">
          <mxGeometry x="1450" y="420" width="20" height="30" as="geometry" />
        </mxCell>
        <mxCell id="JGmyNRBN7DjQSGYgZuc0-728" value="" style="strokeColor=#FFFF99;fillColor=#FFFF99;" vertex="1" parent="1">
          <mxGeometry x="1490" y="420" width="20" height="30" as="geometry" />
        </mxCell>
        <mxCell id="JGmyNRBN7DjQSGYgZuc0-729" value="" style="strokeColor=#FFFF99;fillColor=#FFFF99;" vertex="1" parent="1">
          <mxGeometry x="1470" y="420" width="20" height="30" as="geometry" />
        </mxCell>
        <mxCell id="JGmyNRBN7DjQSGYgZuc0-730" value="" style="strokeColor=#FFFF99;fillColor=#FFFF99;" vertex="1" parent="1">
          <mxGeometry x="1510" y="420" width="20" height="30" as="geometry" />
        </mxCell>
        <mxCell id="JGmyNRBN7DjQSGYgZuc0-731" value="" style="strokeColor=#CCFF99;fillColor=#CCFF99;" vertex="1" parent="1">
          <mxGeometry x="1570" y="450" width="20" height="20" as="geometry" />
        </mxCell>
        <mxCell id="JGmyNRBN7DjQSGYgZuc0-732" value="" style="strokeColor=#CCFF99;fillColor=#CCFF99;" vertex="1" parent="1">
          <mxGeometry x="1590" y="450" width="20" height="20" as="geometry" />
        </mxCell>
        <mxCell id="JGmyNRBN7DjQSGYgZuc0-733" value="" style="strokeColor=#CCFF99;fillColor=#CCFF99;" vertex="1" parent="1">
          <mxGeometry x="1610" y="450" width="20" height="20" as="geometry" />
        </mxCell>
        <mxCell id="JGmyNRBN7DjQSGYgZuc0-734" value="" style="strokeColor=#CCFF99;fillColor=#CCFF99;" vertex="1" parent="1">
          <mxGeometry x="1630" y="450" width="20" height="20" as="geometry" />
        </mxCell>
        <mxCell id="JGmyNRBN7DjQSGYgZuc0-735" value="" style="strokeColor=#CCFF99;fillColor=#CCFF99;" vertex="1" parent="1">
          <mxGeometry x="1650" y="450" width="20" height="20" as="geometry" />
        </mxCell>
        <mxCell id="JGmyNRBN7DjQSGYgZuc0-736" value="" style="strokeColor=#CCFF99;fillColor=#CCFF99;" vertex="1" parent="1">
          <mxGeometry x="1770" y="450" width="20" height="20" as="geometry" />
        </mxCell>
        <mxCell id="JGmyNRBN7DjQSGYgZuc0-737" value="" style="strokeColor=#CCFF99;fillColor=#CCFF99;" vertex="1" parent="1">
          <mxGeometry x="1710" y="450" width="20" height="20" as="geometry" />
        </mxCell>
        <mxCell id="JGmyNRBN7DjQSGYgZuc0-738" value="" style="strokeColor=#CCFF99;fillColor=#CCFF99;" vertex="1" parent="1">
          <mxGeometry x="1730" y="450" width="20" height="20" as="geometry" />
        </mxCell>
        <mxCell id="JGmyNRBN7DjQSGYgZuc0-739" value="" style="strokeColor=#CCFF99;fillColor=#CCFF99;" vertex="1" parent="1">
          <mxGeometry x="1790" y="450" width="20" height="20" as="geometry" />
        </mxCell>
        <mxCell id="JGmyNRBN7DjQSGYgZuc0-740" value="" style="strokeColor=#CCFF99;fillColor=#CCFF99;" vertex="1" parent="1">
          <mxGeometry x="1750" y="450" width="20" height="20" as="geometry" />
        </mxCell>
        <mxCell id="JGmyNRBN7DjQSGYgZuc0-741" value="" style="strokeColor=#99FFFF;fillColor=#99FFFF;" vertex="1" parent="1">
          <mxGeometry x="1850" y="470" width="20" height="20" as="geometry" />
        </mxCell>
        <mxCell id="JGmyNRBN7DjQSGYgZuc0-742" value="" style="strokeColor=#99FFFF;fillColor=#99FFFF;" vertex="1" parent="1">
          <mxGeometry x="1870" y="470" width="20" height="20" as="geometry" />
        </mxCell>
        <mxCell id="JGmyNRBN7DjQSGYgZuc0-743" value="" style="strokeColor=#99FFFF;fillColor=#99FFFF;" vertex="1" parent="1">
          <mxGeometry x="1930" y="470" width="20" height="20" as="geometry" />
        </mxCell>
        <mxCell id="JGmyNRBN7DjQSGYgZuc0-744" value="" style="strokeColor=#99FFFF;fillColor=#99FFFF;" vertex="1" parent="1">
          <mxGeometry x="1890" y="470" width="20" height="20" as="geometry" />
        </mxCell>
        <mxCell id="JGmyNRBN7DjQSGYgZuc0-745" value="" style="strokeColor=#99FFFF;fillColor=#99FFFF;" vertex="1" parent="1">
          <mxGeometry x="1910" y="470" width="20" height="20" as="geometry" />
        </mxCell>
        <mxCell id="JGmyNRBN7DjQSGYgZuc0-746" value="" style="strokeColor=#99FFFF;fillColor=#99FFFF;" vertex="1" parent="1">
          <mxGeometry x="2030" y="470" width="20" height="20" as="geometry" />
        </mxCell>
        <mxCell id="JGmyNRBN7DjQSGYgZuc0-747" value="" style="strokeColor=#99FFFF;fillColor=#99FFFF;" vertex="1" parent="1">
          <mxGeometry x="2050" y="470" width="20" height="20" as="geometry" />
        </mxCell>
        <mxCell id="JGmyNRBN7DjQSGYgZuc0-748" value="" style="strokeColor=#99FFFF;fillColor=#99FFFF;" vertex="1" parent="1">
          <mxGeometry x="1990" y="470" width="20" height="20" as="geometry" />
        </mxCell>
        <mxCell id="JGmyNRBN7DjQSGYgZuc0-749" value="" style="strokeColor=#99FFFF;fillColor=#99FFFF;" vertex="1" parent="1">
          <mxGeometry x="2010" y="470" width="20" height="20" as="geometry" />
        </mxCell>
        <mxCell id="JGmyNRBN7DjQSGYgZuc0-750" value="" style="strokeColor=#99FFFF;fillColor=#99FFFF;" vertex="1" parent="1">
          <mxGeometry x="2070" y="470" width="20" height="20" as="geometry" />
        </mxCell>
        <mxCell id="JGmyNRBN7DjQSGYgZuc0-755" value="" style="strokeColor=#9999FF;fillColor=#9999FF;" vertex="1" parent="1">
          <mxGeometry x="2130" y="490" width="20" height="20" as="geometry" />
        </mxCell>
        <mxCell id="JGmyNRBN7DjQSGYgZuc0-756" value="" style="strokeColor=#9999FF;fillColor=#9999FF;" vertex="1" parent="1">
          <mxGeometry x="2150" y="490" width="20" height="20" as="geometry" />
        </mxCell>
        <mxCell id="JGmyNRBN7DjQSGYgZuc0-757" value="" style="strokeColor=#9999FF;fillColor=#9999FF;" vertex="1" parent="1">
          <mxGeometry x="2210" y="490" width="20" height="20" as="geometry" />
        </mxCell>
        <mxCell id="JGmyNRBN7DjQSGYgZuc0-758" value="" style="strokeColor=#9999FF;fillColor=#9999FF;" vertex="1" parent="1">
          <mxGeometry x="2190" y="490" width="20" height="20" as="geometry" />
        </mxCell>
        <mxCell id="JGmyNRBN7DjQSGYgZuc0-759" value="" style="strokeColor=#9999FF;fillColor=#9999FF;" vertex="1" parent="1">
          <mxGeometry x="2170" y="490" width="20" height="20" as="geometry" />
        </mxCell>
        <mxCell id="JGmyNRBN7DjQSGYgZuc0-760" value="" style="strokeColor=#9999FF;fillColor=#9999FF;" vertex="1" parent="1">
          <mxGeometry x="2330" y="490" width="20" height="20" as="geometry" />
        </mxCell>
        <mxCell id="JGmyNRBN7DjQSGYgZuc0-761" value="" style="strokeColor=#9999FF;fillColor=#9999FF;" vertex="1" parent="1">
          <mxGeometry x="2310" y="490" width="20" height="20" as="geometry" />
        </mxCell>
        <mxCell id="JGmyNRBN7DjQSGYgZuc0-762" value="" style="strokeColor=#9999FF;fillColor=#9999FF;" vertex="1" parent="1">
          <mxGeometry x="2290" y="490" width="20" height="20" as="geometry" />
        </mxCell>
        <mxCell id="JGmyNRBN7DjQSGYgZuc0-763" value="" style="strokeColor=#9999FF;fillColor=#9999FF;" vertex="1" parent="1">
          <mxGeometry x="2270" y="490" width="20" height="20" as="geometry" />
        </mxCell>
        <mxCell id="JGmyNRBN7DjQSGYgZuc0-764" value="" style="strokeColor=#9999FF;fillColor=#9999FF;" vertex="1" parent="1">
          <mxGeometry x="2350" y="490" width="20" height="20" as="geometry" />
        </mxCell>
        <mxCell id="JGmyNRBN7DjQSGYgZuc0-765" value="" style="strokeColor=#FF99CC;fillColor=#FF99CC;" vertex="1" parent="1">
          <mxGeometry x="2410" y="510" width="20" height="20" as="geometry" />
        </mxCell>
        <mxCell id="JGmyNRBN7DjQSGYgZuc0-771" value="" style="strokeColor=#FF99CC;fillColor=#FF99CC;" vertex="1" parent="1">
          <mxGeometry x="2430" y="510" width="20" height="20" as="geometry" />
        </mxCell>
        <mxCell id="JGmyNRBN7DjQSGYgZuc0-772" value="" style="strokeColor=#FF99CC;fillColor=#FF99CC;" vertex="1" parent="1">
          <mxGeometry x="2450" y="510" width="20" height="20" as="geometry" />
        </mxCell>
        <mxCell id="JGmyNRBN7DjQSGYgZuc0-773" value="" style="strokeColor=#FF99CC;fillColor=#FF99CC;" vertex="1" parent="1">
          <mxGeometry x="2470" y="510" width="20" height="20" as="geometry" />
        </mxCell>
        <mxCell id="JGmyNRBN7DjQSGYgZuc0-774" value="" style="strokeColor=#FF99CC;fillColor=#FF99CC;" vertex="1" parent="1">
          <mxGeometry x="2490" y="510" width="20" height="20" as="geometry" />
        </mxCell>
        <mxCell id="JGmyNRBN7DjQSGYgZuc0-776" value="&lt;font style=&quot;font-size: 24px;&quot;&gt;Timeline Planning Data&lt;span data-token-id=&quot;1&quot; class=&quot;react-editor-token react-editor-whitespace-token&quot;&gt; &lt;/span&gt;&lt;span data-token-id=&quot;2&quot; class=&quot;react-editor-token react-editor-text-token&quot;&gt;Exploration&lt;/span&gt;&lt;span data-token-id=&quot;3&quot; class=&quot;react-editor-token react-editor-whitespace-token&quot;&gt; &lt;/span&gt;&lt;span data-token-id=&quot;4&quot; class=&quot;react-editor-token react-editor-text-token&quot;&gt;&amp;amp;&lt;/span&gt;&lt;/font&gt;&lt;div data-token-id=&quot;5&quot; style=&quot;width:100%;display:flex&quot; class=&quot;react-editor-token react-editor-carriagereturn-token&quot;&gt; &lt;/div&gt;&lt;font style=&quot;font-size: 24px;&quot;&gt;&lt;span data-token-id=&quot;6&quot; class=&quot;react-editor-token react-editor-text-token&quot;&gt;Analysis&lt;br&gt;(Customer&lt;/span&gt;&lt;span data-token-id=&quot;7&quot; class=&quot;react-editor-token react-editor-whitespace-token&quot;&gt; &lt;/span&gt;&lt;span data-token-id=&quot;8&quot; class=&quot;react-editor-token react-editor-text-token&quot;&gt;Acquisition)&lt;/span&gt;&lt;/font&gt;" style="text;html=1;strokeColor=none;fillColor=none;align=center;verticalAlign=middle;whiteSpace=wrap;rounded=0;fontStyle=1;fontFamily=Tahoma;" vertex="1" parent="1">
          <mxGeometry x="1390" y="-490" width="300" height="70" as="geometry" />
        </mxCell>
        <mxCell id="JGmyNRBN7DjQSGYgZuc0-777" value="Oct 23" style="fillColor=#23445D;strokeColor=#FFFFFF;strokeWidth=2;fontColor=#FFFFFF;fontStyle=1" vertex="1" parent="1">
          <mxGeometry x="2530" y="340" width="400" height="20" as="geometry" />
        </mxCell>
        <mxCell id="JGmyNRBN7DjQSGYgZuc0-779" value="1" style="fillColor=#23445D;strokeColor=#FFFFFF;strokeWidth=2;fontColor=#FFFFFF;fontStyle=1" vertex="1" parent="1">
          <mxGeometry x="2530.000000000002" y="360" width="20" height="20" as="geometry" />
        </mxCell>
        <mxCell id="JGmyNRBN7DjQSGYgZuc0-780" value="2" style="fillColor=#23445D;strokeColor=#FFFFFF;strokeWidth=2;fontColor=#FFFFFF;fontStyle=1" vertex="1" parent="1">
          <mxGeometry x="2550.000000000002" y="360" width="20" height="20" as="geometry" />
        </mxCell>
        <mxCell id="JGmyNRBN7DjQSGYgZuc0-781" value="4" style="fillColor=#23445D;strokeColor=#FFFFFF;strokeWidth=2;fontColor=#FFFFFF;fontStyle=1" vertex="1" parent="1">
          <mxGeometry x="2590.000000000002" y="360" width="20" height="20" as="geometry" />
        </mxCell>
        <mxCell id="JGmyNRBN7DjQSGYgZuc0-782" value="5" style="fillColor=#23445D;strokeColor=#FFFFFF;strokeWidth=2;fontColor=#FFFFFF;fontStyle=1" vertex="1" parent="1">
          <mxGeometry x="2610.000000000002" y="360" width="20" height="20" as="geometry" />
        </mxCell>
        <mxCell id="JGmyNRBN7DjQSGYgZuc0-783" value="3" style="fillColor=#23445D;strokeColor=#FFFFFF;strokeWidth=2;fontColor=#FFFFFF;fontStyle=1" vertex="1" parent="1">
          <mxGeometry x="2570.000000000002" y="360" width="20" height="20" as="geometry" />
        </mxCell>
        <mxCell id="JGmyNRBN7DjQSGYgZuc0-784" value="9" style="fillColor=#23445D;strokeColor=#FFFFFF;strokeWidth=2;fontColor=#FFFFFF;fontStyle=1" vertex="1" parent="1">
          <mxGeometry x="2690.000000000002" y="360" width="20" height="20" as="geometry" />
        </mxCell>
        <mxCell id="JGmyNRBN7DjQSGYgZuc0-785" value="8" style="fillColor=#23445D;strokeColor=#FFFFFF;strokeWidth=2;fontColor=#FFFFFF;fontStyle=1" vertex="1" parent="1">
          <mxGeometry x="2670.000000000002" y="360" width="20" height="20" as="geometry" />
        </mxCell>
        <mxCell id="JGmyNRBN7DjQSGYgZuc0-786" value="7" style="fillColor=#23445D;strokeColor=#FFFFFF;strokeWidth=2;fontColor=#FFFFFF;fontStyle=1" vertex="1" parent="1">
          <mxGeometry x="2650.000000000002" y="360" width="20" height="20" as="geometry" />
        </mxCell>
        <mxCell id="JGmyNRBN7DjQSGYgZuc0-787" value="6" style="fillColor=#23445D;strokeColor=#FFFFFF;strokeWidth=2;fontColor=#FFFFFF;fontStyle=1" vertex="1" parent="1">
          <mxGeometry x="2630.000000000002" y="360" width="20" height="20" as="geometry" />
        </mxCell>
        <mxCell id="JGmyNRBN7DjQSGYgZuc0-788" value="" style="strokeColor=#DEEDFF;fillColor=#D4E1F5;" vertex="1" parent="1">
          <mxGeometry x="2530" y="380" width="20" height="170" as="geometry" />
        </mxCell>
        <mxCell id="JGmyNRBN7DjQSGYgZuc0-789" value="" style="strokeColor=#DEEDFF;fillColor=#D4E1F5;" vertex="1" parent="1">
          <mxGeometry x="2810" y="380" width="20" height="170" as="geometry" />
        </mxCell>
        <mxCell id="JGmyNRBN7DjQSGYgZuc0-791" value="" style="strokeColor=#DEEDFF;fillColor=#D4E1F5;" vertex="1" parent="1">
          <mxGeometry x="2650" y="380" width="20" height="170" as="geometry" />
        </mxCell>
        <mxCell id="JGmyNRBN7DjQSGYgZuc0-792" value="" style="strokeColor=#DEEDFF;fillColor=#D4E1F5;" vertex="1" parent="1">
          <mxGeometry x="2670" y="380" width="20" height="170" as="geometry" />
        </mxCell>
        <mxCell id="JGmyNRBN7DjQSGYgZuc0-793" value="" style="strokeColor=#DEEDFF;fillColor=#D4E1F5;" vertex="1" parent="1">
          <mxGeometry x="2790" y="380" width="20" height="170" as="geometry" />
        </mxCell>
        <mxCell id="JGmyNRBN7DjQSGYgZuc0-796" value="" style="strokeColor=#DEEDFF;fillColor=#FFFFFF;" vertex="1" parent="1">
          <mxGeometry x="2550" y="380" width="20" height="170" as="geometry" />
        </mxCell>
        <mxCell id="JGmyNRBN7DjQSGYgZuc0-797" value="" style="strokeColor=#DEEDFF;fillColor=#FFFFFF;" vertex="1" parent="1">
          <mxGeometry x="2610" y="380" width="20" height="170" as="geometry" />
        </mxCell>
        <mxCell id="JGmyNRBN7DjQSGYgZuc0-798" value="" style="strokeColor=#DEEDFF;fillColor=#FFFFFF;" vertex="1" parent="1">
          <mxGeometry x="2590" y="380" width="20" height="170" as="geometry" />
        </mxCell>
        <mxCell id="JGmyNRBN7DjQSGYgZuc0-799" value="" style="strokeColor=#DEEDFF;fillColor=#FFFFFF;" vertex="1" parent="1">
          <mxGeometry x="2570" y="380" width="20" height="170" as="geometry" />
        </mxCell>
        <mxCell id="JGmyNRBN7DjQSGYgZuc0-802" value="" style="strokeColor=#DEEDFF;fillColor=#FFFFFF;" vertex="1" parent="1">
          <mxGeometry x="2630" y="380" width="20" height="170" as="geometry" />
        </mxCell>
        <mxCell id="JGmyNRBN7DjQSGYgZuc0-803" value="" style="strokeColor=#DEEDFF;fillColor=#FFFFFF;" vertex="1" parent="1">
          <mxGeometry x="2690" y="380" width="20" height="170" as="geometry" />
        </mxCell>
        <mxCell id="JGmyNRBN7DjQSGYgZuc0-804" value="" style="strokeColor=#FF99CC;fillColor=#FF99CC;" vertex="1" parent="1">
          <mxGeometry x="2550" y="510" width="20" height="20" as="geometry" />
        </mxCell>
        <mxCell id="JGmyNRBN7DjQSGYgZuc0-805" value="" style="strokeColor=#FF99CC;fillColor=#FF99CC;" vertex="1" parent="1">
          <mxGeometry x="2610" y="510" width="20" height="20" as="geometry" />
        </mxCell>
        <mxCell id="JGmyNRBN7DjQSGYgZuc0-806" value="" style="strokeColor=#FF99CC;fillColor=#FF99CC;" vertex="1" parent="1">
          <mxGeometry x="2590" y="510" width="20" height="20" as="geometry" />
        </mxCell>
        <mxCell id="JGmyNRBN7DjQSGYgZuc0-807" value="" style="strokeColor=#FF99CC;fillColor=#FF99CC;" vertex="1" parent="1">
          <mxGeometry x="2570" y="510" width="20" height="20" as="geometry" />
        </mxCell>
        <mxCell id="JGmyNRBN7DjQSGYgZuc0-808" value="" style="strokeColor=#FF99CC;fillColor=#FF99CC;" vertex="1" parent="1">
          <mxGeometry x="2630" y="510" width="20" height="20" as="geometry" />
        </mxCell>
        <mxCell id="JGmyNRBN7DjQSGYgZuc0-809" value="10" style="fillColor=#23445D;strokeColor=#FFFFFF;strokeWidth=2;fontColor=#FFFFFF;fontStyle=1" vertex="1" parent="1">
          <mxGeometry x="2710.000000000002" y="360" width="20" height="20" as="geometry" />
        </mxCell>
        <mxCell id="JGmyNRBN7DjQSGYgZuc0-810" value="11" style="fillColor=#23445D;strokeColor=#FFFFFF;strokeWidth=2;fontColor=#FFFFFF;fontStyle=1" vertex="1" parent="1">
          <mxGeometry x="2730.000000000002" y="360" width="20" height="20" as="geometry" />
        </mxCell>
        <mxCell id="JGmyNRBN7DjQSGYgZuc0-811" value="15" style="fillColor=#23445D;strokeColor=#FFFFFF;strokeWidth=2;fontColor=#FFFFFF;fontStyle=1" vertex="1" parent="1">
          <mxGeometry x="2810.000000000002" y="360" width="20" height="20" as="geometry" />
        </mxCell>
        <mxCell id="JGmyNRBN7DjQSGYgZuc0-812" value="16" style="fillColor=#23445D;strokeColor=#FFFFFF;strokeWidth=2;fontColor=#FFFFFF;fontStyle=1" vertex="1" parent="1">
          <mxGeometry x="2830.000000000002" y="360" width="20" height="20" as="geometry" />
        </mxCell>
        <mxCell id="JGmyNRBN7DjQSGYgZuc0-813" value="12" style="fillColor=#23445D;strokeColor=#FFFFFF;strokeWidth=2;fontColor=#FFFFFF;fontStyle=1" vertex="1" parent="1">
          <mxGeometry x="2750.000000000002" y="360" width="20" height="20" as="geometry" />
        </mxCell>
        <mxCell id="JGmyNRBN7DjQSGYgZuc0-814" value="13" style="fillColor=#23445D;strokeColor=#FFFFFF;strokeWidth=2;fontColor=#FFFFFF;fontStyle=1" vertex="1" parent="1">
          <mxGeometry x="2770.000000000002" y="360" width="20" height="20" as="geometry" />
        </mxCell>
        <mxCell id="JGmyNRBN7DjQSGYgZuc0-815" value="14" style="fillColor=#23445D;strokeColor=#FFFFFF;strokeWidth=2;fontColor=#FFFFFF;fontStyle=1" vertex="1" parent="1">
          <mxGeometry x="2790.000000000002" y="360" width="20" height="20" as="geometry" />
        </mxCell>
        <mxCell id="JGmyNRBN7DjQSGYgZuc0-816" value="20" style="fillColor=#23445D;strokeColor=#FFFFFF;strokeWidth=2;fontColor=#FFFFFF;fontStyle=1" vertex="1" parent="1">
          <mxGeometry x="2910.000000000002" y="360" width="20" height="20" as="geometry" />
        </mxCell>
        <mxCell id="JGmyNRBN7DjQSGYgZuc0-817" value="17" style="fillColor=#23445D;strokeColor=#FFFFFF;strokeWidth=2;fontColor=#FFFFFF;fontStyle=1" vertex="1" parent="1">
          <mxGeometry x="2850.000000000002" y="360" width="20" height="20" as="geometry" />
        </mxCell>
        <mxCell id="JGmyNRBN7DjQSGYgZuc0-818" value="18" style="fillColor=#23445D;strokeColor=#FFFFFF;strokeWidth=2;fontColor=#FFFFFF;fontStyle=1" vertex="1" parent="1">
          <mxGeometry x="2870.000000000002" y="360" width="20" height="20" as="geometry" />
        </mxCell>
        <mxCell id="JGmyNRBN7DjQSGYgZuc0-819" value="19" style="fillColor=#23445D;strokeColor=#FFFFFF;strokeWidth=2;fontColor=#FFFFFF;fontStyle=1" vertex="1" parent="1">
          <mxGeometry x="2890.000000000002" y="360" width="20" height="20" as="geometry" />
        </mxCell>
        <mxCell id="JGmyNRBN7DjQSGYgZuc0-820" value="" style="strokeColor=#DEEDFF;fillColor=#FFFFFF;" vertex="1" parent="1">
          <mxGeometry x="2710" y="380" width="20" height="170" as="geometry" />
        </mxCell>
        <mxCell id="JGmyNRBN7DjQSGYgZuc0-821" value="" style="strokeColor=#DEEDFF;fillColor=#FFFFFF;" vertex="1" parent="1">
          <mxGeometry x="2730" y="380" width="20" height="170" as="geometry" />
        </mxCell>
        <mxCell id="JGmyNRBN7DjQSGYgZuc0-822" value="" style="strokeColor=#DEEDFF;fillColor=#FFFFFF;" vertex="1" parent="1">
          <mxGeometry x="2750" y="380" width="20" height="170" as="geometry" />
        </mxCell>
        <mxCell id="JGmyNRBN7DjQSGYgZuc0-823" value="" style="strokeColor=#DEEDFF;fillColor=#FFFFFF;" vertex="1" parent="1">
          <mxGeometry x="2770" y="380" width="20" height="170" as="geometry" />
        </mxCell>
        <mxCell id="JGmyNRBN7DjQSGYgZuc0-824" value="" style="strokeColor=#DEEDFF;fillColor=#FFFFFF;" vertex="1" parent="1">
          <mxGeometry x="2830" y="380" width="20" height="170" as="geometry" />
        </mxCell>
        <mxCell id="JGmyNRBN7DjQSGYgZuc0-825" value="" style="strokeColor=#97D077;fillColor=#97D077;" vertex="1" parent="1">
          <mxGeometry x="2690" y="530" width="20" height="20" as="geometry" />
        </mxCell>
        <mxCell id="JGmyNRBN7DjQSGYgZuc0-826" value="" style="strokeColor=#97D077;fillColor=#97D077;" vertex="1" parent="1">
          <mxGeometry x="2710" y="530" width="20" height="20" as="geometry" />
        </mxCell>
        <mxCell id="JGmyNRBN7DjQSGYgZuc0-827" value="" style="strokeColor=#97D077;fillColor=#97D077;" vertex="1" parent="1">
          <mxGeometry x="2730" y="530" width="20" height="20" as="geometry" />
        </mxCell>
        <mxCell id="JGmyNRBN7DjQSGYgZuc0-828" value="" style="strokeColor=#97D077;fillColor=#97D077;" vertex="1" parent="1">
          <mxGeometry x="2750" y="530" width="20" height="20" as="geometry" />
        </mxCell>
        <mxCell id="JGmyNRBN7DjQSGYgZuc0-829" value="" style="strokeColor=#97D077;fillColor=#97D077;" vertex="1" parent="1">
          <mxGeometry x="2770" y="530" width="20" height="20" as="geometry" />
        </mxCell>
        <mxCell id="JGmyNRBN7DjQSGYgZuc0-830" value="" style="strokeColor=#DEEDFF;fillColor=#FFFFFF;" vertex="1" parent="1">
          <mxGeometry x="2850" y="380" width="20" height="170" as="geometry" />
        </mxCell>
        <mxCell id="JGmyNRBN7DjQSGYgZuc0-831" value="" style="strokeColor=#DEEDFF;fillColor=#FFFFFF;" vertex="1" parent="1">
          <mxGeometry x="2870" y="380" width="20" height="170" as="geometry" />
        </mxCell>
        <mxCell id="JGmyNRBN7DjQSGYgZuc0-832" value="" style="strokeColor=#DEEDFF;fillColor=#FFFFFF;" vertex="1" parent="1">
          <mxGeometry x="2890" y="380" width="20" height="170" as="geometry" />
        </mxCell>
        <mxCell id="JGmyNRBN7DjQSGYgZuc0-833" value="" style="strokeColor=#DEEDFF;fillColor=#FFFFFF;" vertex="1" parent="1">
          <mxGeometry x="2910" y="380" width="20" height="170" as="geometry" />
        </mxCell>
        <mxCell id="JGmyNRBN7DjQSGYgZuc0-834" value="" style="strokeColor=#97D077;fillColor=#97D077;" vertex="1" parent="1">
          <mxGeometry x="2830" y="530" width="20" height="20" as="geometry" />
        </mxCell>
        <mxCell id="JGmyNRBN7DjQSGYgZuc0-835" value="" style="strokeColor=#97D077;fillColor=#97D077;" vertex="1" parent="1">
          <mxGeometry x="2850" y="530" width="20" height="20" as="geometry" />
        </mxCell>
        <mxCell id="JGmyNRBN7DjQSGYgZuc0-836" value="" style="strokeColor=#97D077;fillColor=#97D077;" vertex="1" parent="1">
          <mxGeometry x="2870" y="530" width="20" height="20" as="geometry" />
        </mxCell>
        <mxCell id="JGmyNRBN7DjQSGYgZuc0-837" value="" style="strokeColor=#97D077;fillColor=#97D077;" vertex="1" parent="1">
          <mxGeometry x="2890" y="530" width="20" height="20" as="geometry" />
        </mxCell>
        <mxCell id="JGmyNRBN7DjQSGYgZuc0-838" value="" style="strokeColor=#97D077;fillColor=#97D077;" vertex="1" parent="1">
          <mxGeometry x="2910" y="530" width="20" height="20" as="geometry" />
        </mxCell>
        <mxCell id="JGmyNRBN7DjQSGYgZuc0-839" value="Start - End Time" style="shape=table;startSize=30;container=1;collapsible=0;childLayout=tableLayout;fixedRows=1;rowLines=0;fontStyle=1;strokeColor=default;fontSize=16;" vertex="1" parent="1">
          <mxGeometry x="876.75" y="40" width="180" height="120" as="geometry" />
        </mxCell>
        <mxCell id="JGmyNRBN7DjQSGYgZuc0-840" value="" style="shape=tableRow;horizontal=0;startSize=0;swimlaneHead=0;swimlaneBody=0;top=0;left=0;bottom=0;right=0;collapsible=0;dropTarget=0;fillColor=none;points=[[0,0.5],[1,0.5]];portConstraint=eastwest;strokeColor=inherit;fontSize=16;" vertex="1" parent="JGmyNRBN7DjQSGYgZuc0-839">
          <mxGeometry y="30" width="180" height="30" as="geometry" />
        </mxCell>
        <mxCell id="JGmyNRBN7DjQSGYgZuc0-841" value="" style="shape=partialRectangle;html=1;whiteSpace=wrap;connectable=0;fillColor=none;top=0;left=0;bottom=0;right=0;overflow=hidden;pointerEvents=1;strokeColor=inherit;fontSize=16;" vertex="1" parent="JGmyNRBN7DjQSGYgZuc0-840">
          <mxGeometry width="20" height="30" as="geometry">
            <mxRectangle width="20" height="30" as="alternateBounds" />
          </mxGeometry>
        </mxCell>
        <mxCell id="JGmyNRBN7DjQSGYgZuc0-842" value="&lt;b&gt;Start : 17-07-2023&lt;/b&gt;" style="shape=partialRectangle;html=1;whiteSpace=wrap;connectable=0;fillColor=none;top=0;left=0;bottom=0;right=0;align=left;spacingLeft=6;overflow=hidden;strokeColor=inherit;fontSize=16;" vertex="1" parent="JGmyNRBN7DjQSGYgZuc0-840">
          <mxGeometry x="20" width="160" height="30" as="geometry">
            <mxRectangle width="160" height="30" as="alternateBounds" />
          </mxGeometry>
        </mxCell>
        <mxCell id="JGmyNRBN7DjQSGYgZuc0-843" value="" style="shape=tableRow;horizontal=0;startSize=0;swimlaneHead=0;swimlaneBody=0;top=0;left=0;bottom=0;right=0;collapsible=0;dropTarget=0;fillColor=none;points=[[0,0.5],[1,0.5]];portConstraint=eastwest;strokeColor=inherit;fontSize=16;" vertex="1" parent="JGmyNRBN7DjQSGYgZuc0-839">
          <mxGeometry y="60" width="180" height="30" as="geometry" />
        </mxCell>
        <mxCell id="JGmyNRBN7DjQSGYgZuc0-844" value="" style="shape=partialRectangle;html=1;whiteSpace=wrap;connectable=0;fillColor=none;top=0;left=0;bottom=0;right=0;overflow=hidden;strokeColor=inherit;fontSize=16;" vertex="1" parent="JGmyNRBN7DjQSGYgZuc0-843">
          <mxGeometry width="20" height="30" as="geometry">
            <mxRectangle width="20" height="30" as="alternateBounds" />
          </mxGeometry>
        </mxCell>
        <mxCell id="JGmyNRBN7DjQSGYgZuc0-845" value="&lt;b&gt;End : 20-10-2023&lt;/b&gt;" style="shape=partialRectangle;html=1;whiteSpace=wrap;connectable=0;fillColor=none;top=0;left=0;bottom=0;right=0;align=left;spacingLeft=6;overflow=hidden;strokeColor=inherit;fontSize=16;" vertex="1" parent="JGmyNRBN7DjQSGYgZuc0-843">
          <mxGeometry x="20" width="160" height="30" as="geometry">
            <mxRectangle width="160" height="30" as="alternateBounds" />
          </mxGeometry>
        </mxCell>
        <mxCell id="JGmyNRBN7DjQSGYgZuc0-846" value="" style="shape=tableRow;horizontal=0;startSize=0;swimlaneHead=0;swimlaneBody=0;top=0;left=0;bottom=0;right=0;collapsible=0;dropTarget=0;fillColor=none;points=[[0,0.5],[1,0.5]];portConstraint=eastwest;strokeColor=inherit;fontSize=16;" vertex="1" parent="JGmyNRBN7DjQSGYgZuc0-839">
          <mxGeometry y="90" width="180" height="30" as="geometry" />
        </mxCell>
        <mxCell id="JGmyNRBN7DjQSGYgZuc0-847" value="" style="shape=partialRectangle;html=1;whiteSpace=wrap;connectable=0;fillColor=none;top=0;left=0;bottom=0;right=0;overflow=hidden;strokeColor=inherit;fontSize=16;" vertex="1" parent="JGmyNRBN7DjQSGYgZuc0-846">
          <mxGeometry width="20" height="30" as="geometry">
            <mxRectangle width="20" height="30" as="alternateBounds" />
          </mxGeometry>
        </mxCell>
        <mxCell id="JGmyNRBN7DjQSGYgZuc0-848" value="&lt;b&gt;( estimation )&lt;/b&gt;" style="shape=partialRectangle;html=1;whiteSpace=wrap;connectable=0;fillColor=none;top=0;left=0;bottom=0;right=0;align=left;spacingLeft=6;overflow=hidden;strokeColor=inherit;fontSize=16;" vertex="1" parent="JGmyNRBN7DjQSGYgZuc0-846">
          <mxGeometry x="20" width="160" height="30" as="geometry">
            <mxRectangle width="160" height="30" as="alternateBounds" />
          </mxGeometry>
        </mxCell>
      </root>
    </mxGraphModel>
  </diagram>
</mxfile>
